<svg height='100px' width='100px'  fill="#864f3e" xmlns="http://www.w3.org/2000/svg" xmlns:xlink="http://www.w3.org/1999/xlink" version="1.1" x="0px" y="0px" viewBox="0 0 120 120" style="enable-background:new 0 0 120 120;" xml:space="preserve"><g><path d="M110.7,65.2c-0.7-5.5-2.1-11.1-3.4-16.5c-1.3-5.4-3.1-10.8-6.2-15.5c-3-4.6-6.9-8.7-11.2-12.1C73.7,8.3,51.5,9.9,33.5,17.6   c-11.6,5-18,18.3-20.8,29.8C10.4,56.8,9.9,68,14.1,77c0.4,1.6,1.1,3.1,1.9,4.4c-0.1,0.2,0,0.4,0.1,0.6c5.1,7.5,8.9,16.4,16.2,22.1   c9.2,7.2,20.8,8.2,31.9,6.8c5.6-0.7,11.3-1.2,16.9-2c3.8-0.6,7.6-1.4,10.9-3.3c3.4-1.9,6.1-5,8.4-8.1c3.4-4.7,6.1-9.8,8-15.2   C110.4,76.8,111.4,70.9,110.7,65.2z M16.8,69.6c0.9,4.2,2.4,8.1,4.3,11.8c-0.5-0.8-1.1-1.6-1.6-2.5c-1.4-2.4-2.9-4.7-5.1-6.4   c0-5.3,1.5-10.8,2.9-15.4c2.7-8.7,6.2-18.3,13-24.6c14.9-13.8,40-12.7,55.9-1.5c15.4,10.8,22.4,31,17,48.9c-1.4,4.6-3.5,9-6.7,12.5   c-3.2,3.5-7.3,6.1-11.6,8c-8.6,4-19,5.7-28.4,4.1C38,101.6,22.9,87.2,18.8,69C18.5,67.7,16.5,68.3,16.8,69.6z M16.3,81   c-0.1-0.2-0.2-0.4-0.3-0.6C16.1,80.6,16.2,80.8,16.3,81C16.3,81,16.3,81,16.3,81z M55.2,110c-6.7-0.1-13.2-2-19-5.4   c-9-5.3-13.1-15.3-18.7-23.5c-0.2-0.2-0.4-0.3-0.6-0.3c-1-1.8-1.7-3.6-2.4-5.6c-0.1-0.9-0.2-1.8-0.2-2.7c1.6,1.5,2.6,3.7,3.7,5.7   c1.3,2.2,2.5,4.6,4.1,6.6c4.2,5.1,8.6,9.8,13.5,14.3c3.5,3.2,7.3,6.1,11.7,8c4.2,1.8,8.8,2.5,13.4,2.7c0.1,0,0.3,0,0.4,0   C59.3,109.9,57.2,110.1,55.2,110z M53.8,107.5c-4.7-0.9-8.9-3.1-12.7-5.9c5.2,2.8,10.9,4.7,17,5.5c9.2,1.1,18.8-0.8,27.2-4.5   c8.6-3.7,14.9-9.8,18.4-18.4c2.5-6,3.5-12.5,3.2-18.8c0.8,6.6,0.5,13.2-2.2,19.4c-3.7,8.8-11.4,15-20,18.8   C75.4,108,64,109.6,53.8,107.5z M97.6,98.9c-5.6,7-13.7,8.7-22.2,9.4c12.5-2.9,24.1-10.1,29.8-21.5   C103.1,91.3,100.4,95.4,97.6,98.9z M106.5,84c1.8-4.6,2.3-9.6,2-14.5c-0.2-2.7-0.5-5.3-0.9-8c-0.4-2.8-0.8-6-2.5-8.4   c-0.1-0.1-0.3-0.1-0.4,0c-0.6-1.7-1.3-3.4-2-5.1c0.3,0.3,0.7,0.6,1,0.9c0.3,0.2,0.8-0.1,0.6-0.5c-0.5-1.4-1.5-2.5-2.3-3.8   c-1-1.7-1.8-3.4-2.6-5.2c-1.5-3.2-3-6.3-4.7-9.4c-2.4-4.4-5.9-6-10.5-7.5c-7.2-2.3-14-5.3-21.5-6.5c-7.3-1.1-14.6,0.1-21.3,3   c0,0,0,0.1,0,0.1c7.3-2.7,14.8-3.1,22.5-1.7c7,1.2,13.3,4.2,20,6.4c1.9,0.6,3.9,1.2,5.6,2.2c2.4,1.5,3.6,4.1,5,6.4   c1.6,2.7,2.8,5.6,4.1,8.4c-1.4-2-2.9-3.9-4.6-5.7C80.8,21.3,59.7,17.1,41.8,23.6c-6,2.2-11.5,5.8-15.6,10.7   c-3.8,4.6-6,10.4-8.1,15.9c-2.1,5.5-4.7,13-4.8,20c-0.7-3.8-0.8-7.7-0.6-11.4c0.4-9,3-18.1,7.5-25.9c2.1-3.6,4.7-7,7.8-9.7   c3.5-3.1,7.6-4.7,12-6.2c9.9-3.4,20.7-4.8,31-2.8c11,2.2,20.2,8.7,26.9,17.6c7.1,9.3,8.9,21.7,11.1,32.9   C110.3,71,109,77.7,106.5,84z"></path><path d="M55.6,26.1c0.6-0.1,1.3-0.1,1.9-0.1c0.2,1.2,0.2,2.4,0.2,3.6c-0.4-0.3-0.7-0.7-1.1-1c0,0-0.1,0,0,0c0.4,0.3,0.8,0.6,1.1,1   c0,1-0.2,1.9-0.3,2.9c-0.2-0.4-0.4-0.7-0.6-1.1c0,0-0.1-0.1-0.1-0.1c0,0,0,0,0,0c-0.1-1.6-0.1-3.2-0.8-4.6c-0.1-0.2-0.3,0-0.3,0.1   c0.5,2.4,0.1,5.1,0.2,7.5c0.1,1.3,0.3,2.8,1.7,3.3c1.1,0.4,7.2,1.3,7.4-0.5c0-0.3-0.3-0.5-0.6-0.4c0,0,0,0,0,0   c0.4-0.1,0.2-0.1-0.2-0.2c-0.1,0-0.3,0-0.4-0.1c0,0,0-0.1,0-0.1c0.6-3.1-0.3-6.7-0.9-9.7c-0.1-0.8-2.3-1-2.9-1.2   c-1.4-0.3-2.9-0.2-4.3,0.1C55.2,25.6,55.3,26.1,55.6,26.1z M57.7,36.2c-1.1-0.2-1.1-2.9-1.1-4.3c0.5,0.9,1,1.7,1.6,2.6   c0,0.6,0,1.2,0,1.9C58,36.3,57.9,36.3,57.7,36.2z M57.7,33.1c0,0,0.1-0.1,0.1-0.1c0.2-1,0.2-2,0.2-3c0.3,0.3,0.6,0.7,0.8,1   c-0.3,1-0.5,1.9-0.6,2.9C58,33.6,57.8,33.3,57.7,33.1z M58.5,36.4c-0.1-0.5-0.1-1-0.1-1.5c0.4,0.5,0.8,1.1,1.1,1.6   C59.2,36.4,58.9,36.4,58.5,36.4z M60.1,36.5c-0.6-0.7-1.1-1.5-1.6-2.2c0-1.1,0.2-2.1,0.4-3.2c0.7,1,1.3,2.2,1.7,3.3   c0.1,0.2,0.3,0.2,0.4,0.1c-0.2,0.7-0.4,1.4-0.6,2.1C60.3,36.5,60.2,36.5,60.1,36.5z M58.9,30.9c0.1-0.4,0.2-0.8,0.4-1.1   c0.6,0.8,1.3,1.5,2,2.2c0,0.8-0.1,1.5-0.3,2.3c0,0,0,0,0-0.1C60.4,32.9,59.7,31.9,58.9,30.9z M62.7,36.3c0,0,0,0.1,0.1,0.1   c-0.2,0-0.4,0-0.6,0c-0.5,0-1,0-1.5,0c0.5-1.4,0.7-2.9,0.7-4.4c0.2,0.2,0.4,0.3,0.6,0.5c0,0,0.1,0,0.1,0   C62.3,33.9,62.5,35.1,62.7,36.3z M59.6,26.3c1.8,0.4,2.1,1,2.3,2.7c0.1,1,0.2,2,0.2,3c-0.2-0.3-0.4-0.5-0.7-0.8   c0-0.5-0.1-1.1-0.2-1.6c0,0-0.1,0-0.1,0c0.1,0.5,0.1,1,0.1,1.5c-0.6-0.6-1.2-1.1-1.9-1.7c0.2-0.6,0.5-1.1,0.9-1.7c0,0,0,0,0,0   c-0.3,0.6-0.6,1.1-0.9,1.7c-0.3-0.3-0.6-0.5-0.9-0.8c-0.1-0.1-0.2,0-0.1,0.1c0.3,0.3,0.6,0.7,0.9,1c-0.2,0.4-0.3,0.7-0.4,1.1   c-0.3-0.3-0.6-0.6-0.9-1c0-1.3-0.1-2.6-0.4-3.9C58.3,26,58.9,26.1,59.6,26.3z"></path><path d="M69.9,91.8c-0.1-0.3-0.3-0.5-0.6-0.5c-2.2,0.1-4.3,0.2-6.4,1.2c-0.2,0.1-0.2,0.3-0.2,0.4c-0.1-0.1-0.3-0.2-0.5-0.1   c0,0,0,0,0,0c0.4,0,0.9,9.1,1.2,10.1c0.1,0.2,0.3,0.5,0.5,0.5c0.8,0.2,2.6,0.6,4.4,0.6c0.1,0.1,0.2,0.1,0.3,0.2   c0.1,0.2,0.5,0.2,0.5-0.1c0,0,0-0.1,0-0.1c1.3,0,2.5-0.3,2.9-1.1c0.3-0.1,0.6-0.5,0.4-0.9C71.5,98.8,70.9,95.3,69.9,91.8z    M68.8,92.6c0.3,1.2,0.5,2.5,0.7,3.7c-0.4-0.7-0.9-1.3-1.3-1.9c-0.1-0.1-0.2-0.2-0.3-0.3c0-0.1,0-0.2,0-0.2c0-0.1-0.1-0.1-0.1,0   c0,0.1,0,0.1,0,0.2c-0.3-0.3-0.6-0.6-0.9-0.9c0-0.1,0.1-0.1,0.1-0.2c0.1-0.1-0.1-0.2-0.1-0.1c0,0.1-0.1,0.1-0.1,0.2   c-0.2-0.1-0.3-0.3-0.5-0.4C67.1,92.6,68,92.6,68.8,92.6z M67.7,94.5c-0.2,0.7-0.3,1.4-0.5,2.1c-0.5-0.3-1-0.5-1.5-0.7   c0.2-0.8,0.6-1.7,1-2.4C67.1,93.8,67.4,94.1,67.7,94.5z M63.4,94.9c-0.1-0.4-0.2-1-0.4-1.5c0.1,0,0.2,0,0.3,0   c0.9-0.4,1.7-0.5,2.6-0.7c0.2,0.2,0.5,0.4,0.7,0.6c-0.5,0.8-0.9,1.6-1.2,2.5c-0.1,0-0.2-0.1-0.4-0.1c0,0-0.1,0.1,0,0.1   c0.1,0,0.2,0.1,0.3,0.1c-0.1,0.3-0.2,0.7-0.3,1C64.6,96.2,64,95.5,63.4,94.9z M66.7,101.5c0,0-0.1-0.1-0.1-0.1   c-0.5-0.5-0.9-1-1.3-1.6c0.1,0,0.1-0.1,0.1-0.2c0-0.5,0-1,0-1.4c0.4,0.6,0.8,1.2,1.3,1.7C66.6,100.4,66.6,100.9,66.7,101.5z    M63.8,98.1c-0.1-0.9-0.2-1.9-0.4-2.8c0.5,0.7,1,1.5,1.6,2.3c-0.1,0.6-0.1,1.1-0.2,1.7C64.5,98.9,64.2,98.5,63.8,98.1z M64.7,102.2   c-0.3-1-0.5-2.1-0.7-3.1c0.6,0.8,1.2,1.5,1.8,2.3c0.3,0.4,0.6,0.8,0.9,1.2C66,102.4,65.3,102.3,64.7,102.2z M66.2,98.3   c-0.3-0.3-0.5-0.7-0.8-1c0.1-0.5,0.1-0.9,0.3-1.3c0.6,0.2,1.1,0.5,1.5,0.8c-0.1,0.3-0.1,0.7-0.2,1c-0.1,0.3-0.1,0.7-0.2,1.1   C66.6,98.8,66.4,98.6,66.2,98.3z M68.6,102.7c-0.3,0-0.5,0-0.8,0c-0.3-0.3-0.6-0.6-0.9-0.9c0.1,0,0.3-0.1,0.3-0.2   c0.1-0.3,0.1-0.6,0.1-1c0.4,0.4,0.9,0.7,1.5,0.9C68.7,101.8,68.7,102.3,68.6,102.7z M69,100.8c-0.6-0.4-1.1-0.7-1.6-1.2   c0-0.4,0-0.8,0-1.1c0-0.4,0.1-0.9,0.1-1.3c0.2,0.2,0.5,0.5,0.7,0.8c0.5,0.7,0.7,1.5,0.9,2.3C69.1,100.4,69,100.6,69,100.8z    M67.6,96.8c0.1-0.7,0.2-1.4,0.3-2.1c0,0,0,0,0,0.1c0.7,1,1,2.1,1.7,3.1c0,0.1,0.1,0.1,0.1,0.1c-0.1,0.3-0.2,0.7-0.3,1   C69,98.1,68.3,97.3,67.6,96.8z M69.3,102.7c0-0.4,0.1-0.7,0.1-1.1c0.1,0,0.1,0,0.2,0c0.2,0.2,0.5,0.1,0.5-0.2   c0-0.8-0.2-1.6-0.5-2.3c0.1-0.4,0.1-0.9,0.2-1.3c0,0,0,0,0.1,0c0.3,1.5,0.6,2.9,1,4.4C70.4,102.5,69.8,102.6,69.3,102.7z"></path><path d="M91.5,69.6c0.1,0.2,0.5,0.4,0.7,0.3c3.2-1.3,6.4-1.6,9.8-1.8c0.9-0.1,0.9-1.4,0-1.4c-0.1,0-0.2,0-0.3,0   c-0.2-1.3-0.4-2.5-0.6-3.8c0,0,0.1,0,0.1,0c0.3-0.1,0.1-0.5-0.2-0.4c0,0,0,0,0,0c-0.1-0.4-0.1-0.8-0.2-1.2c0.1-0.1,0.3-0.2,0.4-0.3   c0.2-0.1,0-0.4-0.2-0.3c-0.1,0-0.2,0.1-0.3,0.1c-0.1-0.7-0.2-1.3-0.4-2c-0.1-0.3-0.4-0.5-0.7-0.5c-3.2,0.2-6,1.5-9.1,2.2   c-0.5,0.1-0.3,0.8,0.2,0.8c1.2-0.2,2.3-0.5,3.5-0.7c-0.3,0.9-0.6,1.8-1,2.6c-0.5,0.1-1.1,0.3-1.6,0.5c-0.2,0.1-0.1,0.4,0.1,0.3   c0.4-0.1,0.9-0.2,1.3-0.3c-0.3,0.6-0.7,1.2-1.1,1.8c-0.1,0-0.2,0-0.3,0.1c-0.2,0-0.2,0.3,0,0.4c0,0.1-0.1,0.1-0.1,0.2   c-0.2,0.2,0.2,0.5,0.4,0.2c0.1-0.2,0.2-0.3,0.3-0.5c1-0.2,1.9-0.4,2.9-0.6c-0.2,0.7-0.4,1.4-0.6,2.1c-0.4,0.1-0.9,0.1-1.4,0.1   c-0.2,0-0.2,0.3,0,0.3c0.4,0,0.9,0,1.3-0.1c0,0.1-0.1,0.3-0.1,0.4c-0.6,0.2-1.2,0.4-1.9,0.7c-1.2-2.3-1.7-4.9-3.4-7   c-0.2-0.2-0.5,0.1-0.4,0.3C89.8,64.3,90.2,67.1,91.5,69.6z M97.6,64.5c-0.1,0.6-0.3,1.2-0.5,1.9c-0.7,0.3-1.4,0.5-2.1,0.6   c0.1-0.7,0.3-1.4,0.5-2.1c0.7-0.2,1.4-0.4,2.1-0.6C97.6,64.3,97.6,64.4,97.6,64.5z M95.7,64.1c0.1-0.5,0.3-0.9,0.4-1.3   c0.2-0.1,0.5-0.1,0.7-0.2c0.4-0.1,0.7-0.2,1.1-0.3c0,0.3-0.1,0.7-0.2,1C97.1,63.6,96.4,63.8,95.7,64.1z M99.6,63.5   c0.2,1.1,0.4,2.1,0.5,3.2c-0.6,0-1.2,0.1-1.8,0.2c0.1-0.1,0.3-0.2,0.4-0.3c0.1-0.1-0.1-0.3-0.2-0.2c-0.3,0.2-0.5,0.4-0.8,0.6   c0,0-0.1,0-0.1,0c0-0.1,0.1-0.3,0.1-0.4c0.7-0.3,1.3-0.5,2-0.8c0.3-0.1,0-0.6-0.2-0.4c-0.5,0.3-1,0.5-1.6,0.7   c0.1-0.7,0.2-1.3,0.3-2C98.7,63.8,99.1,63.7,99.6,63.5z M99.5,62.8c-0.4,0.1-0.8,0.2-1.2,0.4c0-0.3,0-0.6,0-0.9   c0.4-0.1,0.7-0.2,1.1-0.3C99.4,62.2,99.4,62.5,99.5,62.8z M99,59.6c0.1,0.5,0.1,1,0.2,1.5c-0.3,0.1-0.6,0.2-1,0.4   c0-0.2,0-0.5,0-0.7c0-0.1-0.2-0.1-0.2,0c0,0.3,0,0.5-0.1,0.8c-0.4,0.2-0.9,0.3-1.3,0.5c-0.1,0-0.3,0.1-0.4,0.1   c0.2-0.8,0.5-1.5,0.7-2.3C97.7,59.7,98.3,59.6,99,59.6z M94.3,60.4c0.8-0.2,1.7-0.4,2.5-0.5c-0.3,0.8-0.6,1.6-0.9,2.4   c-0.8,0.2-1.7,0.5-2.5,0.7C93.8,62.1,94.1,61.3,94.3,60.4z M92.4,65.1c0.3-0.6,0.6-1.2,0.9-1.8c0.8-0.2,1.6-0.4,2.5-0.6   c-0.2,0.5-0.4,1-0.5,1.4C94.3,64.6,93.3,64.9,92.4,65.1z M94.9,67.4c0.7-0.1,1.4-0.3,2.2-0.6c0,0.1,0,0.2,0,0.3   c-0.7,0.1-1.5,0.3-2.2,0.5C94.8,67.6,94.9,67.5,94.9,67.4z"></path><path d="M54.9,74.4c-0.4,0.5-0.3,1.3,0.4,1.4c2.2,0.4,4.4,0.9,6.6,1.4c-0.1,0.2,0.2,0.4,0.4,0.2c0,0,0.1-0.1,0.1-0.1   C69.6,78.8,77,80,84,78.8c0.1,0,0.1-0.1,0-0.2c-0.6-0.1-1.2-0.2-1.8-0.3c0-0.3,0-0.7,0-1c0.5,0,0.7-0.9,0.1-1   c-0.6-0.2-1.2-0.3-1.9-0.5c0-0.2,0.1-0.3,0.1-0.5c0.2,0.1,0.4,0.2,0.6,0.2c0.2,0.1,0.3-0.2,0.2-0.4c-0.2-0.1-0.4-0.3-0.6-0.4   c0.1-0.3,0.2-0.6,0.3-0.9c1.2,1.7,2.5,3.3,3.8,5c0.2,0.2,0.5-0.1,0.4-0.3c-5.3-8.9-10.5-18-18.3-24.9c0.1-0.5,0.2-1,0.2-1.4   c0,0-0.1-0.1-0.1,0c-0.2,0.4-0.4,0.8-0.6,1.1c-0.1,0-0.2-0.1-0.3-0.1c-9.1-2.7-19.6-3-27.5-8.7c-0.1,0-0.2,0-0.1,0.1   c2.4,3.7,7.5,5.2,11.5,6.4c5.1,1.6,10.4,2.2,15.5,3.7c0,0,0,0,0.1,0.1c-0.6,1.3-1.2,2.5-1.8,3.8c-0.2,0-0.4,0-0.6,0   c-0.2,0-0.2,0.2,0,0.2c0.2,0,0.3,0,0.5,0c0,0.1-0.1,0.1-0.1,0.2c-0.1-0.1-0.3-0.2-0.5-0.2c-1.6-0.6-3.1,0-4.4,1.1   c-1.3,1.1-2.2,2.9-2.4,4.6c-0.1,1.3,0.1,3.1,1.3,3.8c-0.4,0.6-0.5,1.6-0.7,2.3c-0.3,0.7-0.5,1.5-0.8,2.2   C52.2,62.3,42.3,55,37.7,44.6c-0.1-0.1-0.3,0-0.2,0.1C40.8,56,51.1,63.2,54.8,74.2C54.9,74.3,54.9,74.4,54.9,74.4z M63.2,75.6   c-1.2-0.2-2.3-0.5-3.5-0.7c0.2-0.2,0.4-0.5,0.5-0.8c1.1,0.4,2.2,0.7,3.3,0.9C63.4,75.2,63.3,75.4,63.2,75.6z M69.3,62.8   c-0.1,0.7-0.3,1.3-0.5,2c-0.2,0-0.4-0.1-0.6-0.2c0.1-0.6,0.3-1.2,0.4-1.8C68.9,62.8,69.1,62.8,69.3,62.8z M68.7,62.6   c0.2-0.7,0.3-1.3,0.5-2c0.2,0.1,0.3,0.2,0.5,0.3c-0.1,0.6-0.2,1.1-0.3,1.7C69.2,62.6,68.9,62.6,68.7,62.6z M71.7,72.9   c-0.3,0-0.7-0.1-1-0.1c-0.1-0.4-0.3-0.7-0.5-1.1c0.1-0.2,0.1-0.4,0.2-0.6c0.1,0,0.2,0,0.4,0c0.6,0.1,1.2,0.1,1.8,0.2   c-0.1,0.5-0.1,1-0.1,1.6C72.2,72.9,71.9,72.9,71.7,72.9z M72.4,73.4c0,0.5,0,0.9,0,1.4c0,0.1,0,0.2-0.1,0.3c-0.4,0-0.9,0-1.3-0.1   c0-0.6,0-1.2-0.2-1.8C71.3,73.2,71.9,73.3,72.4,73.4z M70.2,71.1c0,0.1-0.1,0.3-0.1,0.4c-0.1-0.1-0.1-0.2-0.2-0.4c0,0-0.1,0-0.1,0   c0.1,0.2,0.2,0.3,0.3,0.5c-0.1,0.4-0.3,0.7-0.4,1.1c-0.8-0.1-1.6-0.1-2.3-0.2c0.2-0.6,0.4-1.2,0.6-1.8C68.6,70.9,69.4,71,70.2,71.1   z M68,70.3c0.2-0.6,0.4-1.2,0.5-1.8c0.8,0,1.7,0,2.5,0c-0.2,0.7-0.5,1.4-0.7,2.1C69.6,70.6,68.8,70.5,68,70.3z M70.1,71.9   c0.1,0.3,0.3,0.6,0.4,0.9c-0.2,0-0.4,0-0.7-0.1C69.9,72.5,70,72.2,70.1,71.9z M69.5,73.1c-0.2,0.6-0.5,1.2-0.7,1.8   c-0.8,0-1.6-0.1-2.4-0.2c0.3-0.6,0.5-1.2,0.8-1.9C67.9,72.9,68.7,73,69.5,73.1z M69.7,73.1c0.3,0,0.6,0.1,0.9,0.1   c0.1,0.6,0.2,1.2,0.1,1.8c-0.6,0-1.2,0-1.7-0.1C69.3,74.3,69.5,73.7,69.7,73.1z M72.1,70.7c-0.5,0-1-0.1-1.6-0.1   c0.2-0.7,0.5-1.4,0.7-2.1c0.6,0,1.2,0,1.7,0c-0.1,0.7-0.2,1.5-0.3,2.2C72.5,70.7,72.3,70.7,72.1,70.7z M72.8,71.4   c0.1,0,0.2,0,0.3,0c-0.1,0.5-0.2,1-0.4,1.5C72.8,72.4,72.8,71.9,72.8,71.4z M72.9,73.5c1.2,0.2,2.3,0.4,3.4,0.7   c-0.1,0.4-0.1,0.8-0.2,1.2c-1.1-0.1-2.3-0.2-3.4-0.2c0-0.2,0-0.5,0-0.7C72.8,74.1,72.8,73.8,72.9,73.5z M73,73   c0.1-0.5,0.2-1,0.3-1.5c1.1,0.1,2.3,0.2,3.5,0.2c-0.1,0.5-0.2,1.1-0.3,1.6c0,0.1,0,0.1,0,0.2C75.3,73.2,74.1,73.1,73,73z    M73.3,70.8c-0.1,0-0.3,0-0.4,0c0.1-0.7,0.2-1.5,0.3-2.2c0.2,0,0.5,0,0.7,0C73.7,69.3,73.5,70,73.3,70.8z M73,68.2   c-0.6,0-1.1,0-1.7,0c0.3-0.8,0.5-1.6,0.8-2.5c0.4,0.1,0.9,0.1,1.3,0.1C73.3,66.6,73.2,67.4,73,68.2z M71.2,68.2c-0.9,0-1.7,0-2.6,0   c0.3-1,0.5-2,0.6-3.1c0.9,0.3,1.8,0.5,2.7,0.6C71.7,66.5,71.5,67.3,71.2,68.2z M68.8,65c-0.5,1.8-1.1,3.5-1.7,5.2   c-0.2,0-0.3-0.1-0.5-0.1c0.6-1.7,1.1-3.5,1.6-5.3C68.4,64.8,68.6,64.9,68.8,65z M67,70.6c-0.2,0.6-0.4,1.3-0.6,1.9   c-0.2,0-0.5,0-0.7-0.1c0.3-0.6,0.6-1.3,0.8-1.9C66.6,70.5,66.8,70.6,67,70.6z M66.3,72.7c-0.2,0.6-0.3,1.3-0.5,1.9   c-0.2,0-0.4,0-0.6-0.1c-0.1-0.3-0.1-0.6-0.1-0.9c0.2-0.3,0.3-0.7,0.5-1C65.8,72.7,66.1,72.7,66.3,72.7z M64.9,72.4   c-1.2-0.1-2.3-0.3-3.5-0.5c0.2-0.7,0.4-1.3,0.6-2c0.6,0,1.1-0.2,1.6-0.4c0.7,0.3,1.5,0.6,2.3,0.8C65.4,71,65.1,71.7,64.9,72.4z    M63.9,74.4c-1.2-0.2-2.3-0.4-3.5-0.7c0.2-0.6,0.3-1.3,0.2-1.9c0.2,0.1,0.4,0.1,0.6,0.2c-0.2,0.5-0.4,1-0.6,1.5   c-0.1,0.2,0.2,0.3,0.3,0.1c0.2-0.5,0.3-1.1,0.4-1.6c1.1,0.2,2.3,0.4,3.5,0.6c0,0,0,0,0,0C64.6,73.2,64.2,73.8,63.9,74.4z    M64.8,74.6c-0.1,0-0.1,0-0.2,0c0.1-0.1,0.1-0.2,0.2-0.3C64.8,74.4,64.8,74.5,64.8,74.6z M61.3,71.8c-0.2,0-0.5-0.1-0.7-0.1   c0-0.2-0.1-0.4-0.1-0.5c0-0.1-0.3-0.1-0.2,0.1c0,0.1,0.1,0.3,0.1,0.4c-0.2,0-0.4-0.1-0.6-0.2c0.1-0.6,0.4-1.2,0.7-1.8   c0.3,0.1,0.6,0.1,0.9,0.2c0.3,0,0.5,0,0.8,0C61.8,70.5,61.5,71.2,61.3,71.8z M60.3,71.8c0.1,0.7,0,1.3-0.3,1.9   c-0.1,0-0.3-0.1-0.4-0.1c-0.1-0.7-0.1-1.3,0-2C59.9,71.6,60.1,71.7,60.3,71.8z M70.1,76.8c-2.1-0.3-4.2-0.7-6.2-1.1   c0.1-0.2,0.3-0.4,0.4-0.6c2.1,0.4,4.2,0.5,6.4,0.7c0,0,0,0,0,0c-0.1,0.2,0.3,0.3,0.3,0.1c0,0,0-0.1,0-0.1c0.4,0,0.8,0.1,1.2,0.1   c0,0.3-0.1,0.6-0.1,0.9c0,0.2,0.3,0.3,0.3,0.1c0-0.3,0.1-0.6,0.1-0.9c0.1,0.2,0.3,0.2,0.4,0c1.1,0.1,2.2,0.2,3.3,0.3   c0,0.2,0,0.4,0.1,0.7c0,0.2,0.4,0.2,0.5,0c0-0.2,0.1-0.4,0.1-0.6c1,0.1,2.1,0.3,3.1,0.5c0,0.4,0,0.8,0,1.2   C76.6,77.6,73.3,77.3,70.1,76.8z M80,75.8c-1-0.2-2.1-0.4-3.2-0.5c0-0.4,0-0.7,0-1.1c1.1,0.3,2.2,0.6,3.3,1   C80.1,75.4,80,75.6,80,75.8z M82,77.4C82,77.4,82,77.4,82,77.4c0.1,0.3,0.1,0.7,0.1,1c-0.6-0.1-1.1-0.2-1.7-0.2   c-0.1-0.4-0.1-0.8-0.1-1.2C80.8,77.1,81.4,77.2,82,77.4z M80.7,73.6c-0.2,0.3-0.3,0.7-0.4,1c-1-0.6-2.2-0.9-3.4-1.2   c0-0.6,0.1-1.3,0.2-1.9c0.7,0,1.4-0.1,2-0.2C79.6,72.2,80.2,72.9,80.7,73.6z M78.7,70.9c-0.5-0.1-1-0.1-1.5-0.1   c0.1-0.5,0.1-0.9,0.2-1.4c0,0-0.1-0.1-0.1,0c-0.1,0.5-0.2,1-0.3,1.4c-1.2,0-2.3,0-3.5,0c0.2-0.8,0.4-1.5,0.7-2.3   c0.1,0,0.1-0.1,0.1-0.2c0.3-0.8,0.5-1.5,0.8-2.3c0-0.1-0.1-0.1-0.2,0c-0.3,0.7-0.6,1.5-0.8,2.2c0,0,0,0,0,0c-0.3,0-0.5,0-0.8,0   c0.1-0.8,0.2-1.5,0.4-2.3c0.5,0,1,0,1.4,0C76.3,67.5,77.5,69.2,78.7,70.9z M74.5,65.1c-0.7,0-1.5,0-2.2,0c0.2-0.6,0.4-1.3,0.7-1.9   C73.5,63.8,74,64.5,74.5,65.1z M73,63.1c-0.3,0.7-0.5,1.3-0.7,2c-1,0-1.9-0.1-2.9-0.3c0.1-0.7,0.2-1.4,0.3-2c0.8,0,1.7,0,2.5,0   c0.2,0,0.2-0.3,0-0.3c-0.8,0-1.7,0-2.5,0c0.1-0.6,0.1-1.1,0.2-1.7c0.1,0,0.1-0.1,0-0.2c-0.2-0.1-0.4-0.2-0.6-0.3   c0.1-0.4,0.2-0.9,0.3-1.3C70.8,60.4,71.9,61.7,73,63.1z M69.4,58.8c-0.1,0.5-0.3,0.9-0.4,1.4c-0.8-0.3-1.5-0.5-2.3-0.5   c0.1-0.2,0.2-0.5,0.3-0.7c0.3,0,0.6,0,0.9,0c0.2,0,0.2-0.3,0-0.3c-0.3,0-0.5,0-0.8,0c0.3-0.5,0.5-1,0.8-1.5   C68.4,57.8,68.9,58.3,69.4,58.8z M66.3,55.7c0.5,0.5,1,1,1.5,1.5c-0.4,0.5-0.7,1-1,1.6c-0.5,0-1,0-1.6,0   C65.7,57.7,66.1,56.7,66.3,55.7z M65.2,59c0.5,0,1,0,1.5,0c-0.1,0.2-0.2,0.5-0.3,0.7c-0.1,0-0.2,0-0.3,0c-0.2,0-0.2,0.2,0,0.2   c0.1,0,0.1,0,0.2,0c-0.2,0.5-0.5,1-0.7,1.6c-0.2-0.5-0.5-1-0.9-1.4C64.9,59.8,65,59.4,65.2,59z M66.3,63.8   c-0.1-0.6-0.3-1.2-0.5-1.8c0.2-0.7,0.5-1.4,0.8-2.1c0.8,0,1.6,0.2,2.4,0.5c-0.2,0.7-0.4,1.4-0.6,2.1c-0.5,0-0.9,0-1.4,0   c-0.1,0-0.1,0.2,0,0.2c0.4,0,0.9,0,1.3,0c-0.7,2.4-1.4,4.8-2.3,7.1c-0.7-0.2-1.3-0.4-2-0.7C65.8,68.2,66.6,66,66.3,63.8z    M59.8,61.8c1.1-1.1,2.1-1.1,2.9-0.5c0,0,0,0.1,0,0.1c-0.3,0.6,0.4,1.2,0.9,0.9c0.4,0.6,0.7,1.4,0.8,2.1c0.5,2.2-1,3.7-3.1,3.9   c-1,0.1-1.8-0.2-2.4-0.8c-0.2-0.8-0.6-1.6-0.6-2.5C58.3,63.8,59,62.7,59.8,61.8z M59.1,69.1c0.3,0.2,0.5,0.3,0.8,0.4   c-0.3,0.6-0.6,1.2-0.8,1.8c-0.2-0.1-0.5-0.1-0.7-0.2c0,0-0.1,0.1,0,0.1c0.2,0.1,0.5,0.1,0.7,0.2c-0.2,0.6-0.2,1.2-0.2,1.9   c-0.3-0.1-0.6-0.2-0.9-0.3c-0.1,0-0.2,0.2-0.1,0.2c0.3,0.2,0.7,0.3,1,0.5c0,0.2,0,0.3,0.1,0.5c0.1,0.4,0.8,0.3,0.7-0.2   c0,0,0.1,0,0.1,0c-0.2,0.3-0.4,0.5-0.6,0.8c-0.9-0.2-1.9-0.4-2.8-0.6C57.5,72.6,58.5,71,59.1,69.1z"></path><path d="M13.9,60.7c-0.1-3.3,0.1-6.6,0.8-9.8C13.9,54.1,13.6,57.4,13.9,60.7z"></path><path d="M14,61.7c0-0.3-0.1-0.7-0.1-1C13.9,61.1,13.9,61.4,14,61.7C14,61.8,14,61.8,14,61.7z"></path><path d="M19.6,35.2C19.6,35.2,19.6,35.3,19.6,35.2c4.3-4.9,9.9-8.7,16-11.4c-3.4,1.9-6.6,4.1-9.4,6.8c-6.1,5.6-10,12.6-11.6,20.4   c1.8-7.6,6.2-14.6,12.1-19.9c4.2-3.8,9.1-6.6,14.4-8.5c2.6-0.9,5.2-1.6,7.9-2.1c1.8-0.3,3.6-0.4,5.4-0.6c2.9,0,5.9,0.1,8.7,0.5   c5.5,0.7,10.7,2.4,16,4c0.4,0.1,0.6-0.5,0.3-0.7c-9.3-5.1-21.2-6.2-31.5-4.8c-5.4,0.8-10.7,2.6-15.5,5.1   C27.4,26.6,23.3,30.9,19.6,35.2z"></path><path d="M21.4,69.2c-0.1,0.3,0.3,0.4,0.4,0.2c0.1-0.3,0.2-0.6,0.4-0.9c0.3,1.6,0.7,3.2,1.2,4.8c0.1,0.3,0.4,0.5,0.7,0.4   c1.6-0.6,3.2-1,4.8-1.4c0.1,0.1,0.4,0.1,0.4-0.1c0.6-0.1,1.2-0.3,1.8-0.4c0.1,0,0.2-0.1,0.2-0.1c0.4,0.3,1.2,0.2,1.3-0.5   c0.3-3.8-1.3-7.5-0.1-11.2c0.1-0.5-0.3-1-0.8-0.8c-3.1,1-6.1,1.9-9.3,2.4c-0.1,0-0.1,0.2,0,0.2c1.3,0.2,2.5,0.1,3.8,0   c-0.3,0.5-0.6,1-0.9,1.5c-0.3-0.2-0.7-0.5-1-0.7c0,0,0,0,0,0c0-0.1,0.1-0.3,0.1-0.4c0-0.2-0.2-0.2-0.2-0.1c-0.4,1.6-1,3.1-1.7,4.5   c-0.3-1.3-0.5-2.7-0.8-4.1c0-0.2-0.4-0.2-0.4,0.1c0.2,1.7,0.4,3.5,0.6,5.2C21.8,68.3,21.6,68.7,21.4,69.2z M23.4,70.1   c-0.2-0.5-0.3-1-0.4-1.5c0.2,0.3,0.4,0.5,0.6,0.8C23.5,69.6,23.5,69.8,23.4,70.1z M25.2,72c-0.3,0.1-0.6,0.2-0.9,0.3   c-0.2-0.4-0.3-0.9-0.5-1.3c0.1-0.4,0.3-0.8,0.4-1.2c0.4,0.4,0.8,0.7,1.3,1C25.3,71.2,25.2,71.6,25.2,72z M24.2,69.5   c0.3-1.1,0.5-2.3,0.7-3.4c0.4,0.6,0.9,1.2,1.4,1.6c-0.4,0.9-0.7,1.9-0.9,2.8C25,70.2,24.6,69.9,24.2,69.5z M29,71   c-1.1,0.2-2.2,0.5-3.2,0.8c0.1-0.2,0.1-0.5,0.2-0.7c0.3,0.1,0.5,0.2,0.8,0.3c0.2,0.1,0.4-0.3,0.1-0.4c-0.3-0.1-0.5-0.2-0.8-0.3   c0.2-0.9,0.5-1.9,0.8-2.8c0.4,0.2,0.8,0.5,1.3,0.6c0.2,0.1,0.4-0.3,0.2-0.4c-0.4-0.2-0.9-0.5-1.3-0.7c0.2-0.6,0.5-1.3,0.7-1.9   c0.6,0.6,1.2,1.3,1.7,2c0.1,0.1,0.1,0.1,0.2,0.1C29.3,68.7,29.1,69.8,29,71z M30.8,70.6c-0.5,0.1-1,0.2-1.4,0.3   c0.2-2.2,0.8-4.4,1.4-6.5c0.1,2.1,0.5,4.2,0.4,6.3C31.1,70.6,31,70.5,30.8,70.6z M26.5,61.8c1.5-0.2,3-0.6,4.5-1   c-0.2,1-0.2,2-0.2,3.1c-0.4,1.1-0.8,2.2-1.1,3.4c-0.6-0.7-1.2-1.4-1.9-2c0.4-1.2,0.9-2.3,1.4-3.5c0-0.1-0.1-0.1-0.1-0.1   c-0.5,1.1-1,2.2-1.5,3.3c-0.6-0.5-1.2-1-1.8-1.5C25.9,62.9,26.2,62.4,26.5,61.8z M25.6,63.7c0.6,0.5,1.2,1,1.8,1.6   c-0.3,0.6-0.6,1.3-0.8,1.9c-0.3-0.2-0.6-0.4-0.8-0.6c-0.2-0.2-0.5-0.4-0.7-0.7C25.2,65.1,25.4,64.4,25.6,63.7z M24.4,62.7   c0.3,0.3,0.6,0.5,1,0.8c-0.3,0.6-0.5,1.2-0.7,1.8c0-0.1-0.1-0.1-0.1-0.2c0,0.1,0,0.1,0.1,0.2c-0.4,1.2-0.7,2.4-0.9,3.6   c-0.4-0.4-0.7-0.9-1-1.4c0-0.1,0-0.1,0-0.2C23.3,65.8,24,64.3,24.4,62.7z"></path><path d="M24.4,64.6C24.4,64.5,24.4,64.5,24.4,64.6c0,0.1,0,0.1,0,0.2C24.4,64.7,24.4,64.6,24.4,64.6z"></path></g></svg>