<svg height='100px' width='100px'  fill="#864f3e" xmlns="http://www.w3.org/2000/svg" xmlns:xlink="http://www.w3.org/1999/xlink" version="1.1" x="0px" y="0px" viewBox="0 0 100 169.2" style="enable-background:new 0 0 100 169.2;" xml:space="preserve"><g><path d="M0.1,69.5c3.2,5,9.2,9.5,14.5,12.2c4.7,2.4,9.6,3,14.8,2.3c7.7-1.2,14.8-4.4,22.3-6.4c6.1-1.7,12.9-2.9,18.6-0.1   c0.2,8.3,0.6,16.6,1.1,24.9c0,4.7,0,9.3,0,14c0,11.6-0.2,23.1,0.4,34.7c0,0.6,0.9,0.6,0.9,0c0.3-5.3,0.4-10.6,0.5-16   c0.1,1.9,0.1,3.8,0.2,5.7c-0.2,3.4-0.2,6.8-0.3,10.3c0,0.4,0.2,0.6,0.4,0.7c-6.8-0.1-13.4,0.8-19.7,3.7c-0.8,0.4-1.4,1.5-1.4,2.4   c0,2,0.6,3.6,1.5,4.9c0.4,0.8,1,1.4,1.8,1.9c4.8,4,13.6,4.5,18.9,4.5c4.3,0,8.7-0.3,13-1.1c1-0.1,2-0.4,3-0.6   c0.1,0,0.3-0.1,0.4-0.1c3.4-0.9,7.8-1.9,8.9-5.6c0.4-1.4-0.8-2.7-2.1-2.7c-0.4-1.1-1.2-2.2-2.4-3c-3.8-2.7-8.8-3.4-13.6-3.8   c-0.3-0.2-0.7-0.4-1-0.4c-0.3,0-0.7,0-1,0.1c0-0.4,0-0.8,0.1-1.3c0.1,0.2,0.2,0.4,0.3,0.7c0.2,0.5,1,0.5,1.3,0   c1.5-3.1,0.6-7.8,0.4-11.2c-0.3-5.1-0.6-10.1-1.1-15.1c-0.2-2.9-0.5-5.8-0.7-8.8c0-6.9,0-13.8,0-20.8c0.3-3.3,0.4-6.6,0.4-9.9   c0-3-0.2-5.9-0.4-8.9c0.1-17,0.4-34.1-0.1-51.1c5.7-1.4,7-6.1,5.8-10.9c1.2-3.3,0.5-6.6-1.6-9C84,5.6,83.9,5.3,83.7,5   c-4-6-12.1-6.5-16.4-2.1c-3.4,1.9-6.1,6.7-3.8,12.1c0.6,1.5,1.5,2.7,2.6,3.5c1.2,2.6,3.1,4.9,5.6,6.2c0,1.3,0,2.7,0,4   c0,0.6,0,1.2,0,1.8c-7.9-6.2-19.5-2.6-28.5,0.1c-12.3,3.6-26.9,8.3-36.6-3.1c-0.8-1-2.1,0.4-1.4,1.4c0.2,0.3,0.4,0.5,0.6,0.7   C5.9,31.4,5.9,33.2,6,35c0,0-0.1,0-0.1-0.1c-0.2-0.1-0.3,0.1-0.2,0.3c0.1,0.1,0.2,0.2,0.3,0.3c0,2.6-0.1,5.3-0.3,7.9   c-0.1,0.1-0.2,0.2-0.1,0.4c0,0,0,0,0,0c-0.2,1.7-0.4,3.5-0.7,5.3c-1,6.1-2.5,12.2-2.7,18.4c-0.1,2.3,3.3,2.2,3.5,0   c0-0.2,0-0.3,0.1-0.5c9.7,5.8,20.2,11.1,31.7,7c5.8-2.1,11-5.5,16.6-7.9c2.9-1.2,6.1-2.3,9.3-2.1c2.4,0.2,4.5,1,6.6,2   c0,1.3,0,2.6,0,3.8C63,67.3,55.6,71.6,48.4,74c-0.3,0.1-0.2,0.5,0.1,0.4c4.1-1,7.9-2.9,12.1-3.9c3.6-0.9,6.6-0.6,9.6,0.6   c0,1.4,0,2.8,0.1,4.2c-10.4-6.5-25.6,1.2-36.4,3.9c-0.9,0.2-1.8,0.4-2.8,0.6c-5.2,0.6-10-0.3-15-2.5c-0.2-0.1-0.4,0.3-0.2,0.4   c1.3,0.9,2.7,1.5,4.2,2c-1.2-0.3-2.4-0.8-3.6-1.4c-5.4-2.9-9.8-7.9-15.6-9.9C0.3,68.3-0.2,69,0.1,69.5z M65,6.8   C65,6.8,65,6.9,65,6.8c-0.5,1.1-0.6,2.1-0.6,3.1c-0.1,1.8,0,3.6,0.4,5.3c-0.3-0.5-0.6-1.2-0.7-1.9C63.6,10.9,63.8,8.6,65,6.8z    M84.8,12.2c0.1-0.7,0.1-1.4,0-2.1c0-0.2,0-0.3,0-0.5c0.2,0.5,0.3,1,0.3,1.6c0,0.5,0,1-0.1,1.5C85,12.6,84.9,12.4,84.8,12.2z    M80,18.4c0.1-0.2,0.3-0.4,0.4-0.6c0.3-0.3,0.7-0.6,1-0.9c0,0.4-0.1,0.8-0.2,1.1C80.9,18.1,80.4,18.3,80,18.4z M84.8,156.5   c2.2,0.3,4.5,0.8,6.5,1.8c0.6,0.3,3.1,1.5,2.9,2.5c-0.6,0.3-1.3,0.5-2,0.7c-0.4-0.2-0.9-0.3-1.4-0.5c-0.1-0.3-0.2-0.7-0.5-0.9   c0.2,0,0.4,0.1,0.6,0.1c0.9,0.2,1.2-1.1,0.4-1.4c-1.9-0.7-3.8-1-5.6-1.1C85.7,157.2,85.4,156.7,84.8,156.5z M79.6,156.3   C79.6,156.3,79.6,156.3,79.6,156.3c1,0,2,0,3,0c0.4,0,0.7,0,1.1,0C82.3,156.3,80.9,156.3,79.6,156.3z M78.2,28.9   c-0.1-0.3-0.1-0.7-0.2-1c0-0.6,0-1.3,0-1.9c0.1,0,0.2,0,0.3,0C78.3,26.9,78.3,27.9,78.2,28.9z M77.2,83.5c0.1-2.8,0.2-5.7,0.4-8.5   c0.1-1.3,0.2-2.7,0.3-4c0.1,0.9,0.2,1.8,0.2,2.7c0,3.9,0,7.7,0,11.6l0,10.8c0,0,0,0,0,0c-0.1-1.1-0.2-2.2-0.3-3.3   C77.6,89.7,77.4,86.6,77.2,83.5z M76.3,26.9c0,0.1,0,0.1,0,0.2c0,0.1,0,0.2,0,0.3C76.3,27.2,76.3,27.1,76.3,26.9z M75.1,47.7   c-0.1,0-0.1-0.1-0.2-0.1c0.1-2.3,0.2-4.6,0.3-6.9c0,0.7,0.1,1.4,0.1,2C75.3,44.4,75.2,46.1,75.1,47.7z M74.8,54.2   C74.8,54.2,74.7,54.2,74.8,54.2c0-1.8,0-3.6,0.1-5.4c0,0,0.1,0.1,0.1,0.1C75,50.7,74.9,52.4,74.8,54.2z M74.6,59.5   c0-1.3,0.1-2.6,0.1-4c0,0,0,0,0.1,0c0,0.2,0,0.4,0,0.6C74.7,57.3,74.6,58.4,74.6,59.5z M64.5,161.9c0,0-0.1,0.1-0.1,0.1   c-0.4-0.1-0.8-0.2-1.3-0.4c-1.5-0.5-3.5-1.3-4.5-2.4c1-0.4,1.9-0.8,2.9-1.1c0,0.2,0.1,0.4,0.2,0.5c-0.5,0.6-0.5,1.6,0.4,2.1   C62.9,161.2,63.7,161.6,64.5,161.9z M73,25.4C73,25.4,73.1,25.4,73,25.4c0.1,0.2,0,0.3,0,0.4C73,25.7,73,25.6,73,25.4z M6.5,61.7   c5.3,2,11,3.7,16.5,4.5c6.4,0.9,12.4-0.6,18-3.4c4.9-2.4,9.4-6.2,14.7-7.8c5.6-1.7,9.9,0.5,14.4,3.3c0,0.4,0,0.7,0,1.1   c-7.5-2.5-17,2.8-23.5,6.2c-0.1,0.1,0,0.3,0.1,0.3c4.5-1.8,9-4.3,13.8-5.4c2.5-0.6,5.3-0.9,7.9-0.2c0.6,0.2,1.2,0.4,1.8,0.7   c0,0.9,0,1.8,0,2.7c-8.7-4.7-19.3,2.2-27.5,6.2c-7,3.4-14.2,5-21.8,2.6c-5.1-1.6-9.7-4.6-14.8-6.3C6.2,64.7,6.4,63.2,6.5,61.7z    M71.3,36.5c-6.2-3.9-19.1,0-24.4,1.4c-6.5,1.7-13.1,3.5-19.9,4c-2.9,0.2-5.6-0.1-8.2-0.7c1.9-0.5,3.8-1.1,5.8-1.5   c3.9-0.8,7.8-1.4,11.9-1.1c0.1,0,0.1-0.1,0-0.1c-6.3-0.7-13.2,0.3-19.4,2.2c-3.2-1-6.2-2.6-9.2-4.5c-0.2-1.8-0.5-3.6-1-5.3   c8.6,8.3,21.1,5.9,31.8,2.7c9.8-2.9,23.7-9.1,32.9-2.1c0,0.7,0,1.5,0,2.2c-3.8-1.5-8.1-2-12.1-2.1c-4.8-0.1-9.9,0-14.4,1.7   c-0.1,0-0.1,0.2,0,0.2c4.5-1.1,9.8-1,14.4-0.6c4,0.3,8.3,0.9,12.1,2.4c0,0.4-0.1,0.8-0.1,1.1C71.3,36.4,71.3,36.4,71.3,36.5z    M14.4,42.1c0.7-0.1,1.4-0.2,2.1-0.4c2,0.7,4.1,1.2,6.2,1.3c1.4,0.1,2.8,0.1,4.1,0.1c-2.1,1.1-4.2,2.4-6.4,3.3   c-3,1.1-5.6,1.2-8.6,0.5c-1.3-0.6-2.5-1.2-3.8-2c0.1-2.6,0.1-5.2-0.1-7.8c2.2,1.7,4.7,3.2,7.3,4.2c-0.3,0.1-0.7,0.2-1,0.4   C13.9,41.7,14.1,42.1,14.4,42.1z M28.2,43.5c0.7,1.2,1.3,2.5,1.7,3.8c-2.2,0.6-4.4,1.1-6.6,1.4c-2.8,0.3-5.5,0.1-8.1-0.6   c2.4,0,4.8-0.8,6.9-1.9C22.9,45.7,27.7,42.5,28.2,43.5z M30.3,48.7c0,0.2,0.1,0.4,0.1,0.6c0,0-0.1,0-0.1,0   c-5.1,4.1-10.9,8.4-17.7,5.8c-0.1-0.1-0.2,0-0.3,0.1c-1.7-0.5-3.3-1.2-4.9-2.3c0.2-2.3,0.4-4.6,0.5-6.9c0-0.2,0-0.3,0-0.5   c3.5,2.6,7.6,4.3,12.2,4.4C23.6,50.2,27,49.6,30.3,48.7z M70.8,41.8c-9.9-5-20.3-2.1-30.4,1.7c-3.3,1.3-6.7,2.7-10.2,3.7   c-0.4-1.5-1.1-2.9-1.9-4.2c4.8-0.3,9.6-1.4,14.2-2.6c5.5-1.4,11.1-3,16.7-3.6c3.8-0.4,8.6-0.6,11.8,1.6   C71,39.5,70.9,40.7,70.8,41.8z M70.4,50.6c-8.6-7.9-19.8-4.5-29.7-0.6c-6.3,2.5-12.9,5.4-19.4,6.1c3.5-1.4,6.8-4.2,9.3-6.3   c0.1,1,0.1,2.1-0.1,3.1c0,0.1,0.1,0.2,0.2,0c0.3-1.5,0.3-2.9,0-4.3c2-0.5,3.9-1.2,5.8-1.8c11.3-4,22.9-9.4,34.3-3.2   c0,0.5-0.1,1.1-0.1,1.6c-5.3-2.6-10.9-4.2-17.1-3.6c-0.2,0-0.3,0.4,0,0.4c6.2-0.4,11.8,1.5,17,4.2C70.5,47.7,70.4,49.2,70.4,50.6z    M70.2,56.3c-3.5-2.6-7.8-4.2-12.1-3.7c-4.9,0.6-9.2,3.7-13.4,6.1c-6.7,3.9-13.5,7-21.4,6c-5.7-0.7-11.1-3-16.6-4   c0.3-2.3,0.5-4.7,0.8-7c8.6,7,19.9,3.4,29.6-0.3c10.1-3.9,22.2-9.8,31.5-2.1c-5.9-1.7-12.3-1.1-18.5,0.5c-0.2,0-0.1,0.3,0,0.3   c4.2-0.4,8.5-1.2,12.7-0.9c2.7,0.2,5.1,0.9,7.5,1.9C70.3,54.3,70.2,55.3,70.2,56.3z"></path><path d="M33.1,62.5c-5.4,0.8-12,0.2-17.2-1.6c-0.3-0.1-0.3-0.5,0.1-0.5c2.4,0,4.9,0.8,7.2,1.2c3.2,0.6,6.5,0.9,9.8,0.6   C33.3,62.1,33.3,62.5,33.1,62.5z"></path><path d="M34.8,69.1c0.1,0,0.1,0.1,0,0.1c-5.6,0.9-12.7,0.7-17.2-3.3c-0.2-0.2,0.1-0.4,0.3-0.3c2.8,1.2,5.2,2.5,8.2,3.2   C28.9,69.3,31.8,69.4,34.8,69.1z"></path><path d="M28.8,43.6C28.8,43.6,28.8,43.5,28.8,43.6c0.7,0.6,1.5,1.6,2.6,1.7c0,0,0,0.1,0,0.1C30.3,45.2,29.5,44.3,28.8,43.6z"></path></g></svg>