<svg height='100px' width='100px'  fill="#864f3e" xmlns="http://www.w3.org/2000/svg" xmlns:xlink="http://www.w3.org/1999/xlink" version="1.1" x="0px" y="0px" viewBox="0 0 120 120" style="enable-background:new 0 0 120 120;" xml:space="preserve"><g><path d="M10.2,32.7c5.4,6.1,13.9,8,19.5,13.9c0.3,0.4,0.8,0.4,1.1,0.2c1,0.3,2,0.1,3,0c1.6-0.1,3.2-0.2,4.8-0.3   c2.9-0.2,5.8-0.4,8.8-0.6c3.6-0.2,7.2-0.4,10.8-0.4c-0.6,5.6,0,11.5,0.1,17.1c0.2,6.2,0.2,12.3-0.2,18.5   c-0.4,6.1-1.1,12.3-1.5,18.4c-0.2,3-0.4,5.9-0.5,8.9c0,0.3,0,0.7-0.1,1.1c-0.1,0.6-0.1,1.1-0.1,1.7c-0.7,1.3-0.4,2.9-0.4,4.4   c0,0.4,0.2,0.8,0.6,0.9c0,0.1,0,0.2,0,0.3c0,0.3,0.2,0.5,0.5,0.5c0.8,0.1,1.7,0.3,2.5,0.4c1.7,0.6,4,0.4,5.4,0.2   c0.5-0.1,1-0.1,1.5-0.2c2,0.2,4.8,0.4,6.7-0.6c0.3,0,0.6-0.1,0.7-0.4c0,0,0.1-0.1,0.1-0.1c0,0,0.1-0.1,0.1-0.1   c0.3-0.1,0.4-0.3,0.4-0.6c0.2-5.6,0.4-11.2-0.1-16.7c0-0.8,0-1.7,0-2.5c0,0,0.1,0.1,0.1,0.1c0.3,0.2,0.5-0.2,0.2-0.4   c-0.1-0.1-0.3-0.2-0.4-0.3c-0.2-5.6-0.3-11.2,0.1-16.8c0.4-5.8,0.7-11.5,1-17.3c0.2-3.7,0.4-7.5,0.4-11.2c0,0,0,0,0.1,0   c0.2,0.1,0.3-0.2,0.2-0.3c-0.1-0.1-0.2-0.1-0.2-0.2c0-1.5-0.2-2.9-0.4-4.4c3.1,0.1,6.1,0.1,9.2,0.2c4.7,0.1,9.5,0.3,14.1,0.1   c2.8,1.1,6.8-0.9,9.6-1.2c0.3,0,0.6-0.2,0.6-0.6c-0.1-1.2,0.4-2.4,0.4-3.6c0-0.5-0.4-0.9-0.8-1.2c-0.1-0.6-0.5-1.1-1-1.5   c-0.5-0.4-1.1-0.6-1.6-1c-0.7-0.5-0.1-1.5,0.3-2.3c0,0.1,0.1,0.2,0.1,0.3c0.1,0.2,0.3,0.3,0.5,0.1c1.4-1.1,2.8-2.5,2.3-4.5   c-0.1-0.4-0.2-0.7-0.3-1.1c0-0.3,0-0.7-0.1-1c0.1,0,0.2-0.1,0.2-0.1c0.5-0.4,0.9-0.8,1.2-1.4c1.3-2.5,0.4-6.5-1.3-8.8c0,0,0,0,0,0   c0.2,0,0.4-0.2,0.4-0.4c-0.1-1.4-0.5-2.8-1.5-3.8c-0.3-0.4-0.7-0.8-1-1c0,0,0-0.1,0-0.1c-0.1-0.2-0.3-0.2-0.4-0.1   c-3.3,0.1-6.7,0.2-10,0.1c-3.3-0.2-6.6-0.4-10-0.5c-3.6-0.1-7.1,0.1-10.7,0.4c0.1-3.4-0.1-6.8-0.2-10.2c0-0.3-0.3-0.6-0.6-0.6   c-3.4-0.2-6.6,1-9.9,0.9c-2-0.1-4.8-0.3-6.3,1.3c-1.1,1.1-0.7,2.4-0.3,3.8c0.3,1.3,0.9,4.5,0.2,5.6c-0.1,0.1-0.1,0.3,0,0.5   c-5.1,0.1-10.2-0.1-15.3,0.3c-2.9,0.2-5.7,0.2-8.6,0.3c-2.2,0.1-5.1,0-6.5,1.9c-0.1,0.2-0.2,0.3-0.2,0.5c-3.1,1.2-5.6,3.7-7.8,6.1   c-2.8,3-5.5,6.2-8.9,8.5C9.9,31.6,9.8,32.3,10.2,32.7z M15.6,29.3c1,0,2,0,3,0c-0.1,0.2,0,0.5,0.2,0.4c0.5-0.2,0.9-0.3,1.4-0.5   c1.8-0.1,3.7-0.4,5.5-0.5c3.8-0.3,7.6-0.3,11.5-0.3c1,0,2,0,3-0.1c6.4,0.3,12.7,0.2,19.1,0.3c6.5,0,12.9,0.7,19.4,1.4   c-1.1,0-2.1,0.1-3.2,0.1c-4.3,0.1-8.6,0.1-12.9,0.3c-4.5,0.2-9.1,0.6-13.6,0.7c-4.3,0.1-8.6-0.2-12.9-0.2c-4.2,0-8.5,0.2-12.7,0.4   c-3.4,0.1-6.8-0.2-10.2,0.5c0,0-0.1,0-0.1,0c-0.2,0-0.3,0.1-0.4,0.1c1-0.8,1.9-1.6,2.8-2.5C15.5,29.3,15.6,29.3,15.6,29.3z    M100.9,31.3c0,0,0.1,0,0.1,0.1c0,0,0,0.1,0,0.1c-3.1,0.3-6.4-0.1-9.5-0.4c-1.2-0.1-2.5-0.3-3.7-0.4c0.8,0,1.6,0,2.4,0   c3.5,0,7-0.3,10.5-0.4c0.2,0,0.4,0,0.6,0c-0.1,0.1-0.2,0.1-0.3,0.2C100.6,30.6,100.6,31.1,100.9,31.3z M81.6,30   c-0.5-0.1-0.9-0.1-1.4-0.2c-7.6-0.9-15.2-1.6-22.9-1.6c-3.3,0-6.5,0-9.8-0.1c4.1-0.2,8.2-0.4,12.3-0.5c0.9,0.1,1.8,0.2,2.7,0.3   c3.8,0.4,7.5,0.8,11.3,0.7c3.7-0.1,7.4-0.3,11.2-0.3c3.9,0,7.8-0.2,11.7,0c2.4,0.1,4.7,0.7,7.1,1.1c-1.2,0.1-2.5,0.2-3.8,0.2   c-3.7,0-7.4,0.4-11.1,0.4C86.4,29.8,84,29.9,81.6,30z M106.6,28.7c-3.6,0.1-7-1.2-10.6-1.3c-3.9-0.1-7.8,0-11.7,0.1   c-3.7,0-7.4,0.3-11.2,0.4c-2.6,0-5.2-0.2-7.8-0.4c6.2-0.2,12.4-0.6,18.6-1.2c3.6-0.4,7.3-0.7,10.9-0.9c1.7-0.1,3.5,0,5.2-0.4   c-0.1,0.1-0.3,0.1-0.4,0.2c-0.3,0.2-0.4,0.5-0.2,0.8c0.7,1.3,2.2,1.5,3.5,1.6c1.4,0.1,2.9,0.3,4.4,0.3c0,0,0,0,0,0.1   c-0.1,0-0.1,0-0.2,0.1c-0.2,0-0.2,0.2-0.2,0.4c0.1,0.2,0.2,0.4,0.3,0.5c0,0.5-0.1,1-0.1,1.5c-0.8-0.2-1.6-0.4-2.4-0.6   c0.6-0.2,1.3-0.4,1.8-0.4C107.1,29.5,107.1,28.7,106.6,28.7z M25.2,28.3c-0.5,0-1.1,0.1-1.6,0.1c3.3-0.6,6.6-0.6,9.9-0.4   C30.8,28,28,28.1,25.2,28.3z M19.5,25.1c3.2,0.2,6.4,0.7,9.7,1c3.8,0.3,7.5,0,11.3,0.1c5.4,0.1,10.8,0.5,16.2,1   c-5.3,0.2-10.6,0.5-15.8,0.6c-1.6-0.1-3.1-0.1-4.7-0.2c-5.2-0.3-10.7-0.5-15.8,1.1c-1.4,0.1-2.9,0.2-4.3,0.1   C17.2,27.6,18.3,26.4,19.5,25.1z M74.1,12.6c-3.3,0.3-6.6,0.6-9.9,0.9c-1.9,0.1-3.7,0.2-5.6,0.3c0.5-0.5,0.5-1.8,0.5-2.4   c0-0.9,0-1.8-0.2-2.6c-0.2-0.9-0.6-1.9-0.6-2.8c-0.1-2.8,5.3-1.9,7-2c2.8-0.2,5.4-1,8.2-1c0,0.5,0,1.1,0.1,1.6   c-2.3-0.8-10,0.2-11.1,0.2c0,0,0,0,0,0c2.1,0.3,4.2,0.2,6.2,0.2c1.2,0,2.4,0,3.5,0.1c0.3,0,0.9,0,1.4,0.1c0.1,0.8,0.1,1.7,0.2,2.5   c0,0,0,0,0,0c-3.6-1.4-7.6,0.5-11.3,0.7c-0.1,0-0.1,0.1,0,0.1c3.8,0.4,7.4-1.4,11.1-0.1c0.1,0,0.2,0,0.2,0c0.1,0.7,0.1,1.4,0.2,2.2   c-1.7,0.1-3.5-0.4-5.2-0.1c-2.1,0.4-4.2,0.9-6.3,1.2c-0.1,0-0.1,0.1,0,0.1c1.8,0.4,3.6-0.2,5.3-0.5c2.1-0.4,4.1,0.2,6.3,0   c0,0.1,0,0.3,0,0.4c-2.8-1-6.3,0.6-9.2,0.7c-0.1,0-0.1,0.2,0,0.2c2.9,0,6.4-1.5,9.2-0.4C74,12.2,74,12.4,74.1,12.6z M105.8,16.5   c-2.1,0.9-4.8-0.3-7.1,0c-3.4,0.5-6.5,1.7-9.9,2c-3.6,0.4-7.3,0.5-11,0.9c-0.3,0-0.6,0.1-0.9,0.1c-3,0.3-6,0.7-9,0.8   c-3.3,0.1-6.6,0-9.9,0C51,20.2,44,20.1,36.9,20.9c-3.2,0.3-6.3,0.8-9.5,1.4c-2.3,0.5-4.7,1.5-7.1,1.9c2.2-2.4,4.6-4.6,7.1-6.7   c0.1,0.1,0.3,0.2,0.5,0.2c1.3,0.1,2.4-0.4,3.6-0.5c1.4-0.1,2.8-0.2,4.2-0.2c3,0,6-0.4,9.1-0.4c7.1-0.2,14.1-0.1,21.2-0.8   c7-0.8,14-1.7,21.1-1.5C93,14.2,99.6,15,105.2,13c0,0.1,0,0.3,0.1,0.4c0,0,0.1,0.1,0.1,0.1c0.1,0.5,0.1,1.1,0.2,1.6   c-1.6-0.3-3.3-0.1-5,0.2c-2.7,0.5-5.3,0.8-8,1.2c-0.3,0-0.6,0-0.9,0c-2.2-0.1-4.4-0.1-6.6,0.1c-6.3,0.6-12.6,0.4-18.8,0.7   c-2.9,0.2-5.9,0.4-8.8,0.8c-3.5,0-7,0-10.5-0.1c-6.9-0.2-13.8,0.5-20.7,0.7c-0.1,0-0.1,0.2,0,0.2c6.9,0.1,13.8-0.5,20.7-0.3   c1.9,0.1,3.8,0.1,5.7,0.1c-7.6,0.9-15.2,1.9-22.8,1.5c-0.2,0-0.2,0.3,0,0.3c6.4,0.6,12.8-0.2,19.2-1c2.3-0.3,4.6-0.6,7-0.8   c4,0,8-0.1,12.1-0.2c7.1-0.2,14.2-0.4,21.2-1c1.7-0.2,3.4-0.3,5-0.5c0.9,0,1.7-0.1,2.5-0.3c0.5-0.1,0.9-0.1,1.4-0.2   c2.4-0.4,5.1-1.1,7.5-0.6C105.8,16,105.8,16.2,105.8,16.5z M68.7,17.9c-2.1,0.1-4.2,0.1-6.3,0.1c1.7-0.1,3.5-0.3,5.2-0.3   c3.4-0.1,6.7-0.2,10.1-0.3c3-0.1,5.9-0.4,8.9-0.6c0.8,0,1.7,0,2.5,0C82.3,17.5,75.5,17.6,68.7,17.9z M106.8,15.4   c-0.1,0-0.2-0.1-0.3-0.1c-0.1-0.2-0.1-0.4-0.2-0.7c0.1,0.2,0.2,0.4,0.3,0.5C106.7,15.3,106.8,15.4,106.8,15.4z M107,16.6   c0,0,0,0.1,0,0.1c-0.1,0-0.1,0-0.2,0c0,0,0-0.1,0-0.1c0.1-0.1,0.2-0.1,0.2-0.2C107,16.5,107,16.6,107,16.6z M107.2,17.7   c0,0,0,0.1-0.1,0.1c-0.4,0.4-0.6,0.6-0.7,1c-0.6-0.3-1.1-0.3-1.7-0.3c0.6-0.1,1.3-0.3,1.9-0.5c0.2-0.1,0.3-0.2,0.4-0.3   C107,17.7,107.1,17.7,107.2,17.7z M104.7,19.5c0.1,0,0.1-0.1,0.2-0.1c0.3,0,0.5,0,0.8,0.1c-0.4,0-0.7,0-1.1,0   C104.6,19.5,104.7,19.5,104.7,19.5z M108.6,19.7c-0.5-0.1-1-0.2-1.6-0.2c0.2-0.7,0.5-0.8,0.9-1.3C108.2,18.6,108.4,19.1,108.6,19.7   z M109.2,21.6c-0.2-0.7-0.6-1.3-1.2-1.3c0,0,0,0,0,0c0.4,0.9,0.4,2.3,0.4,3.2c0,1.4-0.7,1.9-2.1,1.7c-1.7-0.2-3.5-0.9-5.2-0.6   c0.2-0.1,0.5-0.2,0.7-0.3c0.1,0,0-0.1-0.1-0.1c-2.6,1.2-6,0.8-8.9,0.9c-3.7,0.2-7.3,0.6-11,0.9c-6.5,0.6-13,0.9-19.5,1   c-7.5-0.9-15.1-1.6-22.7-1.7c-3.8,0-7.5,0.2-11.3-0.1c-2.3-0.2-4.5-0.5-6.7-0.7c1.8-0.5,3.5-1.1,5.2-1.5c3.5-0.7,7-1.2,10.6-1.5   c6.8-0.7,13.7-0.6,20.5-0.6c4,0,8,0,12-0.2c-0.4,0.1-0.9,0.2-1.3,0.4c-0.2,0.1-0.1,0.3,0.1,0.3c1.9-0.4,3.8-0.7,5.7-1   c0.6-0.1,1.2-0.1,1.8-0.2c0.9-0.1,1.8-0.2,2.6-0.3c1.1-0.1,2.2-0.2,3.3-0.3c3.4-0.2,6.7,0,9.9,0.9c-4.6,1.4-9.6,0.7-14.3,1.6   c-2.5,0.5-5,1.3-7.5,1.7c-2.4,0.3-4.8,0.4-7.2,0.2c-5.6-0.4-11.1-1.1-16.8-1c-5.8,0.1-11.6,0.3-17.4,0.5c-0.2,0-0.2,0.3,0,0.4   c6,0.3,12.1-0.2,18.1-0.2c3.1,0,6.2,0,9.3,0.3c2.6,0.2,5.3,0.7,7.9,0.7c2.3,0.1,4.6,0,6.8-0.4c2.7-0.5,5.3-1.4,8-1.7   c3.3-0.4,6.6-0.3,9.9-0.7c1.8,0.4,3.7,0.4,5.5,0.4c1.9,0.1,3.9,0.2,5.8-0.2c0,0,0,0,0,0c-1.9-0.2-3.9-0.1-5.8-0.3   c-1.2-0.1-2.4-0.2-3.6-0.3c0.8-0.2,1.6-0.4,2.4-0.7c0.3-0.1,0.3-0.6,0-0.7c-1.6-0.6-3.3-1-5-1.2c1-0.1,2-0.3,2.9-0.4   c3.4-0.6,6.6-2.2,10.1-1.6c0.4,0.1,0.7,0.1,1.1,0.2c0,0,0,0,0,0c-0.1,0.1-0.1,0.1-0.1,0.2c0,0,0,0,0,0.1c-1.3,0.2-2.7,0.3-4,0.5   c-0.4,0.1-0.6,0.6-0.4,0.9c1.8,3,7.6,1.8,10.4,1.1c0,0,0.1,0,0.1,0C108.9,20.5,109,21,109.2,21.6z M102.2,19.1   c-0.5,0.1-1,0.1-1.4,0.3c0,0,0,0,0,0c-0.2-0.1-0.4-0.1-0.5-0.2c1.1-0.1,2.2-0.2,3.2-0.4C103,18.9,102.6,19,102.2,19.1z M104.9,26.5   c-1,0-2.9,0.1-3.9-0.6c2.6-0.7,5.8,1.9,8-0.4c0.3-0.3,0.4-0.9,0.5-1.6c0,1.4-0.3,2.6-1.1,3.4c0-0.1,0-0.1-0.1-0.1   C107.4,26.4,106.1,26.5,104.9,26.5z M105.1,33.8c0.2-0.3,0.5-0.6,0.6-1c0.2,0,0.4,0,0.5,0c0.7,0,0.7-1,0-1.1c-1-0.1-2-0.3-3-0.5   c-0.2-0.1-0.5-0.2-0.7-0.3c1.6-0.4,3.5,0.3,5,0.6c0.1,0,0.3,0,0.4-0.1c0,0.3-0.1,0.6-0.3,0.9c-0.4,0.8-1,1.3-1.7,1.9   c-0.1-0.2-0.1-0.3-0.3-0.5C105.5,33.6,105.2,33.6,105.1,33.8C105.1,33.8,105.1,33.8,105.1,33.8C105.1,33.8,105.1,33.8,105.1,33.8z    M104.6,33.3c-0.3-0.3-0.6-0.6-0.9-0.8c0.4,0.1,0.8,0.2,1.3,0.2C104.9,32.9,104.8,33.1,104.6,33.3z M103.4,36   C103.4,36,103.4,36,103.4,36c0,0.5,0.1,1.1,0.5,1.6c-0.1,0-0.2-0.1-0.4-0.1c-0.3-0.1-1.1,0-1.1-0.4c0-1.1,0.3-2,1.3-2.3   c-0.2,0.4-0.3,0.7-0.3,1.1C103.4,35.8,103.4,35.9,103.4,36z M104.5,34.7c0,0,0.1,0,0.1,0c0.1,0,0.1,0,0.2,0   c-0.2,0.6-0.5,1.2-0.6,1.8c0,0,0,0.1,0,0.1c0,0,0,0,0,0C104,35.8,104.1,35.3,104.5,34.7z M107,38.9C107,38.9,106.9,38.9,107,38.9   c-0.7-0.3-1.3-0.6-1.9-0.9c-0.3-0.4-0.6-0.8-0.8-1.3C105.1,37.5,106.4,37.9,107,38.9z M104.7,37.7c0,0.1,0.1,0.1,0.1,0.2   c-0.1,0-0.1,0-0.2-0.1C104.6,37.8,104.7,37.7,104.7,37.7z M86,44.7c1.8,0,3.6-0.1,5.4-0.1c5.4,0,11-0.3,15.9-3   c0,0.2-0.1,0.4-0.1,0.6c-0.1,0.5-0.2,0.9-0.2,1.4c-3.2,0.4-6.2,1.6-9.5,1.2c-0.2,0-0.4,0.1-0.5,0.3C93.4,44.8,89.7,44.8,86,44.7z    M72.7,110.8c0-0.5,0-0.9,0.1-1.4C72.7,109.8,72.7,110.3,72.7,110.8C72.7,110.7,72.7,110.8,72.7,110.8   C72.7,110.8,72.7,110.8,72.7,110.8z M59.4,80.3c0.4-6.2,0.3-12.3,0.1-18.5c-0.1-3-0.2-5.9-0.4-8.9c-0.1-2.5-0.1-5-0.4-7.5   c2.3,0,4.6,0,6.8,0c2.8,0,5.7,0.1,8.5,0.2c-0.2,1.2-0.3,2.4-0.4,3.7c-1.2-0.5-2.7-0.7-3.9-1c-1.9-0.3-3.8-0.6-5.8-0.5   c-0.1,0-0.1,0.1,0,0.1c2.1,0.2,4.2,0.4,6.2,0.9c1.2,0.3,2.3,0.7,3.4,1.1c-0.1,1-0.1,2.1-0.2,3.1c-1-0.5-2.1-0.8-3-1.1   c-2.1-0.6-4.3-1.1-6.5-1.7c-0.1,0-0.1,0.1-0.1,0.1c1.8,0.8,3.6,1.2,5.4,1.8c1.2,0.4,2.4,0.8,3.5,1.3c0.2,0.1,0.3,0.2,0.5,0.3   c-0.1,2.3-0.1,4.5-0.2,6.8c-0.8-0.6-1.9-0.9-2.8-1.2c-2.1-0.7-4.3-1.1-6-2.5c-0.1-0.1-0.3,0.1-0.2,0.2c1.2,1.1,2.7,1.7,4.2,2.2   c0.9,0.3,1.8,0.6,2.7,0.9c0.7,0.3,1.3,0.7,2,1.1c0,0.4,0,0.7,0,1.1c0,0.7-0.1,1.5-0.1,2.2c-1-1-2.6-1.6-3.8-2.2   c-1.8-0.8-3.8-1.4-5.6-2.2c-0.1,0-0.2,0.1-0.1,0.1c3.2,1.7,6.6,2.8,9.5,4.9c-0.1,1.2-0.1,2.3-0.2,3.5c-1.1-0.6-2.4-1.1-3.5-1.5   c-2-0.7-4-1.4-5.9-2.6c-0.2-0.1-0.3,0.1-0.1,0.3c1.7,1.1,3.5,1.9,5.4,2.6c1.4,0.6,2.7,1.3,4.1,1.9c-0.1,1.5-0.2,3-0.3,4.5   c-1.9-2.4-5.9-3-8.1-4.9c-0.1-0.1-0.1,0-0.1,0.1c1.1,1.3,2.6,2.1,4.1,2.9c1.5,0.8,2.7,1.7,4,2.7c-0.1,1.7-0.2,3.3-0.3,5   c-0.1,1.2-0.1,2.5-0.1,3.7c-1.1-1.2-3.1-2.1-4.3-2.7c-2.3-1.1-4.8-1.9-7-3.2c-0.1,0-0.1,0.1-0.1,0.1c2,1.3,4.2,2.2,6.4,3.3   c1.1,0.5,2.2,1.1,3.2,1.8c0.7,0.5,1.2,1,1.7,1.6c0,1.3,0,2.7,0.1,4c-0.9-1-2.4-1.7-3.3-2.2c-1.9-1-3.9-2-5.6-3.3c0,0-0.1,0,0,0.1   c1.2,1.5,3,2.3,4.6,3.2c0.9,0.5,1.9,1.1,2.7,1.7c0.7,0.5,1.2,1.1,1.7,1.7c0.1,1.9,0.2,3.8,0.3,5.7c-3.3-1.7-7.2-2-10.4-4   c0,0-0.1,0-0.1,0.1c3,2.4,7.1,2.8,10.5,4.5c0,0.5,0,1,0.1,1.6c0.1,1.7,0,3.4-0.1,5.2c-3-2.8-7.6-2.5-10.8-4.9c0,0-0.1,0-0.1,0.1   c3.1,2.7,7.8,2.4,10.6,5.3c0.1,0.1,0.1,0.1,0.2,0.1c-0.1,0.8-0.1,1.6-0.2,2.5c-0.3,2.4-0.5,4.7-0.1,7c-0.2,0.9-0.6,1.7-0.7,2.6   c-1.9,0.2-3.8,0.2-5.6,0.2c-0.5-0.2-1-0.4-1.4-0.6c-1.4-0.6-2.8-1.2-4.3-1.6c0,0-0.1,0,0,0.1c1.4,0.7,2.9,1.4,4.4,2.1   c-1.1-0.1-2.1-0.1-3.2-0.2c-1.2-0.2-2.4-0.4-3.7-0.5c0-1,0.1-2-0.2-2.9c0-0.8,0-1.6-0.2-2.3c0-0.6,0-1.2,0-1.7   c0.1-3,0.4-5.9,0.6-8.9C58.3,92.6,59,86.5,59.4,80.3z M30.5,44.6c6.3,0,12.5-0.3,18.8-0.3c0,0,0,0,0.1,0c-0.9,0-1.8,0.1-2.7,0.2   c-2.9,0.2-5.8,0.4-8.8,0.6c-1.6,0.1-3.2,0.2-4.8,0.3c-0.6,0-1.2,0-1.8,0.1c0-0.1-0.1-0.2-0.2-0.4C30.9,45,30.7,44.8,30.5,44.6z    M12.4,32.4c4.2-0.9,8.8-0.3,13.1-0.5c4.2-0.2,8.5-0.4,12.7-0.2c8.7,0.4,17.2-0.2,25.9-0.5c6.7-0.3,13.5-0.4,20.3-0.5   c3.1,0.4,6.1,0.7,9.2,1c2.5,0.2,5.1,0.4,7.6,0.1c0,0,0.1,0.1,0.1,0.1c0.7,0.6,1.5,1.1,2.2,1.8c-0.9,0.2-1.6,0.9-1.8,1.8   c-0.2,0.8-0.5,2.5,0.6,2.9c1.3,0.4,2.6,0.8,3.9,1.4c0.9,0.4,1.2,0.7,1.2,1.2c0,0,0,0,0,0c-6.9-1.9-14.1-1.9-21.2-2.1   c-8-0.2-16-0.5-24,0c-0.2,0-0.2,0.3,0,0.3c8-0.1,16,0,24,0.3c6.8,0.2,13.6,0.2,20.2,1.9C101,44,94.9,44,89.2,44   c-6.7,0-13.4,0.3-20.1,0.1C62.1,43.9,55,43.6,48,43.7c-6,0.1-12.1,0.3-18.1,0.3C24.6,39.3,17.5,37.3,12.4,32.4z"></path><path d="M36.8,42.5c11.8-0.5,23.7,0.4,35.5-0.1c5.7-0.2,11.3,0,17-0.3c4.7-0.2,9.3,0.8,13.8-0.6c0,0,0.1,0,0,0.1   c-3.5,2.2-8.5,1.3-12.4,1.2c-2.6,0-5.2,0.2-7.8,0.2c-3.1,0-6.2,0-9.3,0.1c-12.3,0.4-24.6,0.4-36.9-0.1   C36.5,42.9,36.5,42.5,36.8,42.5z"></path><path d="M87.4,35.3c1.9-0.1,3.9,0.7,5.7,1.2c1.6,0.5,4.5,1.8,6.1,0.9c0,0,0.1,0,0,0.1c-0.9,1.1-3.1,0.3-4.3,0   c-2.5-0.6-5-1.6-7.6-1.9C87.2,35.6,87.2,35.4,87.4,35.3z"></path><path d="M27,35.9c4.4-0.3,8.8-0.7,13.1-1c5.2-0.3,10.5,0.1,15.7-0.2c2.5-0.1,5-0.5,7.6-0.2c2.4,0.3,4.8,1,7.3,1.1   c0.3,0,0.3,0.4,0,0.5c-9.6,1-19.2,1.4-28.8,2.8c-3.6,0.5-7.2,0.7-10.8,0.9c-2,0.1-4.9,0.7-6.8-0.1c-0.3-0.2,0-0.6,0.3-0.5   c1,0.5,2.5,0.2,3.5,0.2c1.3,0,2.7-0.1,4-0.2c3.9-0.2,7.7-0.6,11.5-1.1c8.2-1.1,16.5-1.5,24.7-2.3c-1.3-0.2-2.7-0.5-4-0.7   c-2.9-0.5-5.7-0.1-8.6,0.1c-5.4,0.3-10.9-0.1-16.3,0.2c-4.5,0.3-8.9,0.7-13.4,1c-3.2,0.2-7.2,0.6-10.1-1.3c0,0,0-0.1,0-0.1   C19.1,36.8,23.6,36.2,27,35.9z"></path><path d="M68.5,54.9c1.5,0.3,3.3,0.7,4.5,1.7c0.2,0.2-0.1,0.4-0.2,0.3c-3.1-1.3-6.6-1.8-9.5-3.3c0,0,0-0.1,0-0.1   C64.9,54.1,66.7,54.5,68.5,54.9z"></path><path d="M66.3,74.8c0.9,0.8,1.9,1.3,2.9,2c0.7,0.4,1.5,1.1,1.8,1.9c0,0.1-0.1,0.2-0.2,0.1c-0.4-0.3-0.6-0.8-1-1.1   c-0.4-0.4-0.9-0.7-1.4-1c-0.8-0.5-1.6-1-2.2-1.7C66,74.9,66.2,74.7,66.3,74.8z"></path><path d="M67.8,90c1.1,0.5,3.5,1.4,4,2.6c0.1,0.2-0.1,0.3-0.3,0.2c-1.3-0.6-2.6-1.7-3.9-2.4c-1.7-0.9-3.6-1.7-5.6-2.1   c0,0,0-0.1,0-0.1C64,88.3,66,89.2,67.8,90z"></path><path d="M63.2,95.8c3,1,6.1,1.6,8.9,3.1c0.2,0.1,0,0.5-0.2,0.4c-2.8-1.4-5.8-2.2-8.7-3.3C63.1,95.9,63.1,95.8,63.2,95.8z"></path><path d="M63.1,102.3c-0.1-0.1,0-0.3,0.1-0.2c1.5,1,3.1,1.7,4.8,2.3c1.3,0.5,2.8,1.2,3.8,2.3c0.2,0.3-0.1,0.7-0.4,0.4   C69,105,65.3,104.7,63.1,102.3z"></path><path d="M61.3,105.4c3.2,2,6.9,3.4,10.1,5.4c0.3,0.2,0,0.7-0.3,0.5c-3.2-2.1-6.8-3.5-9.9-5.8C61,105.5,61.1,105.3,61.3,105.4z"></path><path d="M70.5,114.8c-0.1,0.1-0.2,0-0.3-0.1c0-0.1-1-0.6-1.1-0.6c-0.8-0.5-1.7-0.9-2.5-1.3c-1.4-0.7-3-1.4-4.2-2.4c0,0,0-0.1,0-0.1   C63.3,110.7,71.4,113.8,70.5,114.8z"></path></g></svg>