<svg height='100px' width='100px'  fill="#7d5b15" xmlns="http://www.w3.org/2000/svg" xmlns:xlink="http://www.w3.org/1999/xlink" version="1.1" x="0px" y="0px" viewBox="0 0 100 100" enable-background="new 0 0 100 100" xml:space="preserve"><path fill="#7d5b15" d="M29.863,69.747c0.038,0,0.077-0.015,0.106-0.044c0.059-0.059,0.059-0.153,0-0.212l-1.012-1.018  c-0.059-0.059-0.154-0.061-0.212-0.001c-0.059,0.059-0.059,0.153,0,0.212l1.012,1.018C29.786,69.731,29.825,69.747,29.863,69.747z"></path><path fill="#7d5b15" d="M94.148,47.763c0.039,0,0.076-0.015,0.105-0.044c0.059-0.059,0.059-0.154,0-0.213l-5.988-5.988  c-0.059-0.059-0.152-0.059-0.211,0s-0.059,0.154,0,0.213l5.988,5.988C94.072,47.748,94.109,47.763,94.148,47.763z"></path><path fill="#7d5b15" d="M39.742,50.504c-0.059-0.059-0.153-0.059-0.212,0s-0.059,0.154,0,0.213l5.988,5.992  c0.029,0.029,0.067,0.044,0.106,0.044s0.077-0.015,0.106-0.044c0.059-0.059,0.059-0.154,0-0.213L39.742,50.504z"></path><path fill="#7d5b15" d="M31.247,56.753c0.039,0,0.077-0.015,0.106-0.044c0.059-0.059,0.059-0.154,0-0.213l-5.988-5.992  c-0.059-0.059-0.153-0.059-0.212,0s-0.059,0.154,0,0.213l5.988,5.992C31.17,56.738,31.208,56.753,31.247,56.753z"></path><path fill="#7d5b15" d="M3.874,48.556l1.531,1.535c0.029,0.03,0.067,0.045,0.106,0.045c0.038,0,0.077-0.015,0.106-0.044  c0.059-0.059,0.059-0.153,0-0.212l-1.531-1.535c-0.06-0.061-0.154-0.06-0.212-0.001S3.815,48.497,3.874,48.556z"></path><path fill="#7d5b15" d="M48.643,50.136c0.039,0,0.077-0.015,0.106-0.044c0.059-0.059,0.059-0.154,0-0.213l-5.988-5.992  c-0.059-0.059-0.153-0.059-0.212,0s-0.059,0.154,0,0.213l5.988,5.992C48.566,50.121,48.604,50.136,48.643,50.136z"></path><path fill="#7d5b15" d="M54.119,50.504c-0.059-0.059-0.152-0.059-0.211,0s-0.059,0.154,0,0.213l5.988,5.992  c0.029,0.029,0.066,0.044,0.105,0.044s0.076-0.015,0.105-0.044c0.059-0.059,0.059-0.154,0-0.213L54.119,50.504z"></path><path fill="#7d5b15" d="M3.874,43.814l3.905,3.904c0.029,0.029,0.067,0.044,0.106,0.044s0.077-0.015,0.106-0.044  c0.059-0.059,0.059-0.154,0-0.213l-3.905-3.904c-0.059-0.059-0.153-0.059-0.212,0S3.815,43.756,3.874,43.814z"></path><path fill="#7d5b15" d="M54.504,65.689c0.029,0.029,0.066,0.044,0.105,0.044s0.076-0.015,0.105-0.044  c0.059-0.059,0.059-0.154,0-0.213l-5.988-5.982c-0.059-0.059-0.153-0.059-0.212,0s-0.059,0.154,0,0.213L54.504,65.689z"></path><path fill="#7d5b15" d="M68.881,65.689c0.029,0.029,0.066,0.044,0.105,0.044s0.076-0.015,0.105-0.044  c0.059-0.059,0.059-0.154,0-0.213l-5.988-5.982c-0.059-0.059-0.152-0.059-0.211,0s-0.059,0.154,0,0.213L68.881,65.689z"></path><path fill="#7d5b15" d="M86.283,59.084c0.029,0.029,0.066,0.044,0.105,0.044s0.076-0.015,0.105-0.044  c0.059-0.059,0.059-0.154,0-0.213L80.5,52.877c-0.059-0.059-0.152-0.059-0.211,0s-0.059,0.154,0,0.213L86.283,59.084z"></path><path fill="#7d5b15" d="M87.271,69.703c0.029,0.029,0.068,0.044,0.106,0.044s0.077-0.015,0.106-0.044  c0.059-0.059,0.059-0.154,0-0.213l-1.018-1.018c-0.059-0.059-0.152-0.059-0.211,0s-0.059,0.154,0,0.213L87.271,69.703z"></path><path fill="#7d5b15" d="M82.79,41.151c0.038,0,0.077-0.015,0.106-0.044c0.059-0.059,0.059-0.154,0-0.213l-5.988-5.988  c-0.059-0.059-0.154-0.059-0.213,0s-0.059,0.154,0,0.213l5.988,5.988C82.713,41.137,82.752,41.151,82.79,41.151z"></path><path fill="#7d5b15" d="M52.241,68.106c0.038,0,0.077-0.015,0.106-0.044c0.059-0.059,0.059-0.154,0-0.213l-5.994-5.988  c-0.059-0.059-0.153-0.059-0.212,0s-0.059,0.154,0,0.213l5.993,5.988C52.164,68.092,52.203,68.106,52.241,68.106z"></path><path fill="#7d5b15" d="M42.031,38.784c0.039,0,0.077-0.015,0.106-0.044c0.059-0.059,0.059-0.154,0-0.213l-5.994-5.994  c-0.059-0.059-0.153-0.059-0.212,0s-0.059,0.154,0,0.213l5.994,5.994C41.955,38.77,41.993,38.784,42.031,38.784z"></path><path fill="#7d5b15" d="M88.756,56.753c0.039,0,0.076-0.015,0.105-0.044c0.059-0.059,0.059-0.154,0-0.213l-5.988-5.992  c-0.059-0.059-0.152-0.059-0.211,0s-0.059,0.154,0,0.213l5.988,5.992C88.68,56.738,88.717,56.753,88.756,56.753z"></path><path fill="#7d5b15" d="M79.771,47.763c0.039,0,0.076-0.015,0.105-0.044c0.059-0.059,0.059-0.154,0-0.213l-5.988-5.988  c-0.059-0.059-0.152-0.059-0.211,0s-0.059,0.154,0,0.213l5.988,5.988C79.695,47.748,79.732,47.763,79.771,47.763z"></path><path fill="#7d5b15" d="M95.293,53.293l-0.416-0.416c-0.059-0.059-0.152-0.059-0.211,0s-0.059,0.154,0,0.213l0.416,0.416  c0.029,0.029,0.066,0.044,0.105,0.044s0.076-0.015,0.105-0.044C95.352,53.447,95.352,53.352,95.293,53.293z"></path><path fill="#7d5b15" d="M95.293,62.928l-3.434-3.434c-0.059-0.059-0.154-0.059-0.213,0s-0.059,0.154,0,0.213l3.436,3.434  c0.029,0.029,0.066,0.044,0.105,0.044s0.076-0.015,0.105-0.044C95.352,63.082,95.352,62.986,95.293,62.928z"></path><path fill="#7d5b15" d="M95.293,67.67l-5.807-5.809c-0.059-0.059-0.154-0.059-0.213,0s-0.059,0.154,0,0.213l5.809,5.809  c0.029,0.029,0.066,0.044,0.105,0.044s0.076-0.015,0.105-0.044C95.352,67.824,95.352,67.729,95.293,67.67z"></path><path fill="#7d5b15" d="M63.025,50.136c0.039,0,0.076-0.015,0.105-0.044c0.059-0.059,0.059-0.154,0-0.213l-5.992-5.992  c-0.059-0.059-0.154-0.059-0.213,0s-0.059,0.154,0,0.213l5.994,5.992C62.949,50.121,62.986,50.136,63.025,50.136z"></path><path fill="#7d5b15" d="M77.403,50.136c0.038,0,0.077-0.015,0.106-0.044c0.059-0.059,0.059-0.154,0-0.213l-5.994-5.992  c-0.059-0.059-0.154-0.059-0.213,0s-0.059,0.154,0,0.213l5.994,5.992C77.326,50.121,77.365,50.136,77.403,50.136z"></path><path fill="#7d5b15" d="M80.99,68.106c0.039,0,0.076-0.015,0.105-0.044c0.059-0.059,0.059-0.154,0-0.213l-5.982-5.988  c-0.059-0.059-0.152-0.059-0.211,0s-0.059,0.154,0,0.213l5.982,5.988C80.914,68.092,80.951,68.106,80.99,68.106z"></path><path fill="#7d5b15" d="M54.041,41.151c0.039,0,0.076-0.015,0.105-0.044c0.059-0.059,0.059-0.154,0-0.213l-5.994-5.988  c-0.059-0.059-0.153-0.059-0.212,0s-0.059,0.154,0,0.213l5.995,5.988C53.965,41.137,54.002,41.151,54.041,41.151z"></path><path fill="#7d5b15" d="M19.889,50.136c0.039,0,0.077-0.015,0.106-0.044c0.059-0.059,0.059-0.154,0-0.213l-5.988-5.992  c-0.059-0.059-0.153-0.059-0.212,0s-0.059,0.154,0,0.213l5.988,5.992C19.812,50.121,19.85,50.136,19.889,50.136z"></path><path fill="#7d5b15" d="M10.775,50.504c-0.059,0.059-0.059,0.154,0,0.213l5.988,5.992c0.029,0.029,0.067,0.044,0.106,0.044  s0.077-0.015,0.106-0.044c0.059-0.059,0.059-0.154,0-0.213l-5.988-5.992C10.928,50.445,10.833,50.445,10.775,50.504z"></path><path fill="#7d5b15" d="M23.38,68.062c0.029,0.029,0.067,0.044,0.106,0.044s0.077-0.015,0.106-0.044  c0.059-0.059,0.059-0.154,0-0.213l-5.993-5.988c-0.059-0.059-0.153-0.059-0.212,0s-0.059,0.154,0,0.213L23.38,68.062z"></path><path fill="#7d5b15" d="M25.854,65.733c0.039,0,0.077-0.015,0.106-0.044c0.059-0.059,0.059-0.154,0-0.213l-5.988-5.982  c-0.059-0.059-0.153-0.059-0.212,0s-0.059,0.154,0,0.213l5.988,5.982C25.778,65.719,25.816,65.733,25.854,65.733z"></path><path fill="#7d5b15" d="M16.379,41.518c-0.059-0.059-0.153-0.059-0.212,0s-0.059,0.154,0,0.213l5.988,5.988  c0.029,0.029,0.067,0.044,0.106,0.044s0.077-0.015,0.106-0.044c0.059-0.059,0.059-0.154,0-0.213L16.379,41.518z"></path><path fill="#7d5b15" d="M25.28,41.151c0.039,0,0.077-0.015,0.106-0.044c0.059-0.059,0.059-0.154,0-0.213l-5.988-5.988  c-0.059-0.059-0.153-0.059-0.212,0s-0.059,0.154,0,0.213l5.988,5.988C25.204,41.137,25.242,41.151,25.28,41.151z"></path><path fill="#7d5b15" d="M15.38,69.702c0.029,0.029,0.068,0.045,0.106,0.045c0.038,0,0.077-0.015,0.106-0.044  c0.059-0.059,0.059-0.153,0-0.212l-1.012-1.018c-0.059-0.059-0.154-0.061-0.212-0.001c-0.059,0.059-0.059,0.153,0,0.212  L15.38,69.702z"></path><path fill="#7d5b15" d="M57.5,68.473c-0.059,0.059-0.059,0.153,0,0.212l1.012,1.018c0.029,0.029,0.068,0.045,0.106,0.045  s0.077-0.015,0.106-0.044c0.059-0.059,0.059-0.153,0-0.212l-1.012-1.018C57.654,68.415,57.559,68.413,57.5,68.473z"></path><path fill="#7d5b15" d="M3.874,62.934l5.124,5.129c0.029,0.029,0.067,0.044,0.106,0.044s0.077-0.015,0.106-0.044  c0.059-0.059,0.059-0.154,0-0.213l-5.124-5.129c-0.059-0.059-0.153-0.059-0.212,0S3.815,62.875,3.874,62.934z"></path><path fill="#7d5b15" d="M16.189,32.123c0.029,0.029,0.067,0.044,0.106,0.044s0.077-0.015,0.106-0.044  c0.059-0.059,0.059-0.154,0-0.213l-2.012-2.014c-0.059-0.059-0.153-0.059-0.212,0s-0.059,0.154,0,0.213L16.189,32.123z"></path><path fill="#7d5b15" d="M43.335,68.474c-0.059-0.059-0.154-0.061-0.212-0.001c-0.059,0.059-0.059,0.153,0,0.212l1.012,1.018  c0.029,0.029,0.068,0.045,0.106,0.045c0.038,0,0.077-0.015,0.106-0.044c0.059-0.059,0.059-0.153,0-0.212L43.335,68.474z"></path><path fill="#7d5b15" d="M37.369,52.877c-0.059-0.059-0.153-0.059-0.212,0s-0.059,0.154,0,0.213l5.993,5.994  c0.029,0.029,0.067,0.044,0.106,0.044s0.077-0.015,0.106-0.044c0.059-0.059,0.059-0.154,0-0.213L37.369,52.877z"></path><path fill="#7d5b15" d="M34.16,50.092c0.029,0.029,0.067,0.044,0.106,0.044s0.077-0.015,0.106-0.044  c0.059-0.059,0.059-0.154,0-0.213l-5.988-5.992c-0.059-0.059-0.153-0.059-0.212,0s-0.059,0.154,0,0.213L34.16,50.092z"></path><path fill="#7d5b15" d="M51.746,52.877c-0.059-0.059-0.154-0.059-0.213,0s-0.059,0.154,0,0.213l5.988,5.994  c0.029,0.029,0.068,0.044,0.106,0.044s0.077-0.015,0.106-0.044c0.059-0.059,0.059-0.154,0-0.213L51.746,52.877z"></path><path fill="#7d5b15" d="M39.658,41.151c0.039,0,0.077-0.015,0.106-0.044c0.059-0.059,0.059-0.154,0-0.213l-5.988-5.988  c-0.059-0.059-0.153-0.059-0.212,0s-0.059,0.154,0,0.213l5.988,5.988C39.582,41.137,39.62,41.151,39.658,41.151z"></path><path fill="#7d5b15" d="M27.654,38.784c0.039,0,0.077-0.015,0.106-0.044c0.059-0.059,0.059-0.154,0-0.213l-5.988-5.994  c-0.059-0.059-0.153-0.059-0.212,0s-0.059,0.154,0,0.213l5.988,5.994C27.578,38.77,27.616,38.784,27.654,38.784z"></path><path fill="#7d5b15" d="M30.673,32.167c0.039,0,0.077-0.015,0.106-0.044c0.059-0.059,0.059-0.154,0-0.213l-2.013-2.014  c-0.059-0.059-0.153-0.059-0.212,0s-0.059,0.154,0,0.213l2.013,2.014C30.596,32.152,30.634,32.167,30.673,32.167z"></path><path fill="#7d5b15" d="M31.764,61.861c-0.059,0.059-0.059,0.154,0,0.213l5.994,5.988c0.029,0.029,0.067,0.044,0.106,0.044  s0.077-0.015,0.106-0.044c0.059-0.059,0.059-0.154,0-0.213l-5.994-5.988C31.917,61.803,31.823,61.803,31.764,61.861z"></path><path fill="#7d5b15" d="M40.232,65.733c0.039,0,0.077-0.015,0.106-0.044c0.059-0.059,0.059-0.154,0-0.213l-5.988-5.982  c-0.059-0.059-0.153-0.059-0.212,0s-0.059,0.154,0,0.213l5.988,5.982C40.156,65.719,40.194,65.733,40.232,65.733z"></path><path fill="#7d5b15" d="M30.756,41.518c-0.059-0.059-0.153-0.059-0.212,0s-0.059,0.154,0,0.213l5.988,5.988  c0.029,0.029,0.067,0.044,0.106,0.044s0.077-0.015,0.106-0.044c0.059-0.059,0.059-0.154,0-0.213L30.756,41.518z"></path><path fill="#7d5b15" d="M7.177,32.533c-0.059,0.059-0.059,0.154,0,0.213l5.993,5.994c0.029,0.029,0.067,0.044,0.106,0.044  s0.077-0.015,0.106-0.044c0.059-0.059,0.059-0.154,0-0.213l-5.993-5.994C7.331,32.475,7.236,32.475,7.177,32.533z"></path><path fill="#7d5b15" d="M74.385,56.753c0.039,0,0.076-0.015,0.105-0.044c0.059-0.059,0.059-0.154,0-0.213l-5.994-5.992  c-0.059-0.059-0.152-0.059-0.211,0s-0.059,0.154,0,0.213l5.994,5.992C74.309,56.738,74.346,56.753,74.385,56.753z"></path><path fill="#7d5b15" d="M72.889,69.702c0.029,0.029,0.068,0.045,0.106,0.045s0.076-0.015,0.105-0.044  c0.06-0.058,0.06-0.153,0.001-0.212l-1.006-1.018c-0.059-0.059-0.153-0.061-0.212-0.001c-0.06,0.058-0.06,0.153-0.001,0.212  L72.889,69.702z"></path><path fill="#7d5b15" d="M64.904,32.533c-0.059-0.059-0.154-0.059-0.213,0s-0.059,0.154,0,0.213l5.988,5.994  c0.029,0.029,0.068,0.044,0.106,0.044s0.077-0.015,0.106-0.044c0.059-0.059,0.059-0.154,0-0.213L64.904,32.533z"></path><path fill="#7d5b15" d="M71.9,59.084c0.029,0.029,0.066,0.044,0.105,0.044s0.076-0.015,0.105-0.044c0.059-0.059,0.059-0.154,0-0.213  l-5.988-5.994c-0.059-0.059-0.152-0.059-0.211,0s-0.059,0.154,0,0.213L71.9,59.084z"></path><path fill="#7d5b15" d="M68.412,41.151c0.039,0,0.076-0.015,0.105-0.044c0.059-0.059,0.059-0.154,0-0.213l-5.992-5.988  c-0.059-0.059-0.154-0.059-0.213,0s-0.059,0.154,0,0.213l5.994,5.988C68.336,41.137,68.373,41.151,68.412,41.151z"></path><path fill="#7d5b15" d="M10.797,41.107c0.029,0.029,0.067,0.044,0.106,0.044s0.077-0.015,0.106-0.044  c0.059-0.059,0.059-0.154,0-0.213l-5.988-5.988c-0.059-0.059-0.153-0.059-0.212,0s-0.059,0.154,0,0.213L10.797,41.107z"></path><path fill="#7d5b15" d="M66.619,68.106c0.039,0,0.076-0.015,0.105-0.044c0.059-0.059,0.059-0.154,0-0.213l-5.994-5.988  c-0.059-0.059-0.152-0.059-0.211,0s-0.059,0.154,0,0.213l5.994,5.988C66.543,68.092,66.58,68.106,66.619,68.106z"></path><path fill="#7d5b15" d="M95.188,34.425c0.039,0,0.076-0.015,0.105-0.044c0.059-0.059,0.059-0.154,0-0.213l-1.635-1.635  c-0.059-0.059-0.152-0.059-0.211,0s-0.059,0.154,0,0.213l1.635,1.635C95.111,34.41,95.148,34.425,95.188,34.425z"></path><path fill="#7d5b15" d="M91.072,34.906c-0.059,0.059-0.059,0.154,0,0.213l4.01,4.014c0.029,0.029,0.066,0.044,0.105,0.044  s0.076-0.015,0.105-0.044c0.059-0.059,0.059-0.154,0-0.213l-4.008-4.014C91.227,34.848,91.131,34.848,91.072,34.906z"></path><path fill="#7d5b15" d="M59.321,32.122c0.029,0.03,0.067,0.045,0.106,0.045c0.038,0,0.076-0.015,0.105-0.044  c0.059-0.059,0.059-0.153,0.001-0.212l-2.008-2.014c-0.059-0.061-0.153-0.061-0.212-0.001c-0.059,0.059-0.059,0.153-0.001,0.212  L59.321,32.122z"></path><path fill="#7d5b15" d="M86.068,29.896c-0.059,0.059-0.059,0.153,0,0.212l2.007,2.014c0.029,0.03,0.067,0.045,0.106,0.045  c0.038,0,0.076-0.015,0.105-0.044c0.059-0.059,0.059-0.153,0.001-0.212l-2.007-2.014C86.223,29.837,86.127,29.837,86.068,29.896z"></path><path fill="#7d5b15" d="M65.287,47.719c0.029,0.029,0.068,0.044,0.106,0.044s0.077-0.015,0.106-0.044  c0.059-0.059,0.059-0.154,0-0.213l-5.994-5.988c-0.059-0.059-0.152-0.059-0.211,0s-0.059,0.154,0,0.213L65.287,47.719z"></path><path fill="#7d5b15" d="M14.502,59.128c0.039,0,0.077-0.015,0.106-0.044c0.059-0.059,0.059-0.154,0-0.213l-5.994-5.994  c-0.059-0.059-0.153-0.059-0.212,0s-0.059,0.154,0,0.213l5.994,5.994C14.425,59.113,14.463,59.128,14.502,59.128z"></path><path fill="#7d5b15" d="M79.068,32.533c-0.059,0.059-0.059,0.154,0,0.213l5.988,5.994c0.029,0.029,0.068,0.044,0.106,0.044  s0.077-0.015,0.106-0.044c0.059-0.059,0.059-0.154,0-0.213l-5.988-5.994C79.223,32.475,79.127,32.475,79.068,32.533z"></path><path fill="#7d5b15" d="M11.588,65.477l-5.993-5.982c-0.059-0.059-0.153-0.059-0.212,0c-0.059,0.06-0.059,0.154,0,0.213l5.993,5.982  c0.029,0.029,0.067,0.044,0.106,0.044s0.077-0.015,0.106-0.044C11.647,65.63,11.647,65.535,11.588,65.477z"></path><path fill="#7d5b15" d="M56.408,38.784c0.039,0,0.076-0.015,0.105-0.044c0.059-0.059,0.059-0.154,0-0.213l-5.993-5.994  c-0.059-0.059-0.153-0.059-0.212,0s-0.059,0.154,0,0.213l5.994,5.994C56.332,38.77,56.369,38.784,56.408,38.784z"></path><path fill="#7d5b15" d="M71.686,29.896c-0.059,0.059-0.059,0.154,0,0.213l2.014,2.014c0.029,0.029,0.066,0.044,0.105,0.044  s0.076-0.015,0.105-0.044c0.059-0.059,0.059-0.154,0-0.213l-2.012-2.014C71.84,29.838,71.744,29.838,71.686,29.896z"></path><path fill="#7d5b15" d="M44.943,32.122c0.029,0.03,0.068,0.045,0.106,0.045c0.038,0,0.077-0.015,0.106-0.044  c0.059-0.059,0.059-0.153,0-0.212l-2.007-2.014c-0.059-0.061-0.154-0.061-0.212-0.001c-0.059,0.059-0.059,0.153,0,0.212  L44.943,32.122z"></path><path fill="#7d5b15" d="M50.916,47.719c0.029,0.029,0.067,0.044,0.106,0.044c0.039,0,0.076-0.015,0.105-0.044  c0.059-0.059,0.059-0.154,0-0.213l-5.993-5.988c-0.059-0.059-0.153-0.059-0.212,0s-0.059,0.154,0,0.213L50.916,47.719z"></path><path fill="#7d5b15" d="M91.775,50.136c0.039,0,0.076-0.015,0.105-0.044c0.059-0.059,0.059-0.154,0-0.213l-5.988-5.992  c-0.059-0.059-0.152-0.059-0.211,0s-0.059,0.154,0,0.213l5.988,5.992C91.699,50.121,91.736,50.136,91.775,50.136z"></path><path fill="#7d5b15" d="M83.369,65.733c0.039,0,0.076-0.015,0.105-0.044c0.059-0.06,0.059-0.154,0-0.213l-5.992-5.982  c-0.059-0.059-0.154-0.059-0.213,0c-0.059,0.06-0.059,0.154,0,0.213l5.994,5.982C83.293,65.719,83.33,65.733,83.369,65.733z"></path><path fill="#7d5b15" d="M28.873,59.128c0.039,0,0.077-0.015,0.106-0.044c0.059-0.059,0.059-0.154,0-0.213l-5.988-5.994  c-0.059-0.059-0.153-0.059-0.212,0s-0.059,0.154,0,0.213l5.988,5.994C28.796,59.113,28.834,59.128,28.873,59.128z"></path></svg>