<svg height='100px' width='100px'  fill="#864f3e" xmlns="http://www.w3.org/2000/svg" xmlns:xlink="http://www.w3.org/1999/xlink" version="1.1" x="0px" y="0px" viewBox="0 0 100 100" enable-background="new 0 0 100 100" xml:space="preserve"><path fill-rule="evenodd" clip-rule="evenodd" d="M49.238,12.198c0.1,0,0.195,0,0.293,0c3.998,2.254,6.664,5.844,9.381,9.379  c2.928,3.279,6.006,6.404,8.064,10.555c-0.344,3.127-1.729,5.213-2.641,7.768c-2.713,0.232-4.693,0.291-7.623,0.293  c0.736,11.652,3.031,24.621,3.666,37.382c-1.021,2.352-1.518,5.225-2.932,7.182c-2.256,0.455-4.578,0.189-7.328,0.297  c-6.24-1.027-12.883-0.316-19.201,0.143c-0.789-5.619,1.125-11.701,1.611-17.443c0.604-5.99,0.889-12.303,1.174-18.619  c0.371-1.729,0.449-3.752,0.584-5.717c-1.473-0.727-4.369,0.439-5.863-0.293c-0.229-1.615,1.355-3.082,0.734-5.131  c0.391-0.973,1.078-1.656,1.32-2.783c3.041-3.797,5.709-7.971,9.232-11.289c3.17-3.668,5.875-7.803,9.088-11.43  C48.906,12.352,49.066,12.268,49.238,12.198z M48.799,14.834c-2.697,3.262-5.223,6.701-7.916,9.969  c-1.547,1.432-2.947,3.012-4.25,4.689c-1.26,1.768-2.939,3.119-3.664,5.424c2.949,0.678,7.053-0.703,9.527,0.439  c-0.59,7.039-2.369,12.537-2.199,20.671c-0.344,5.322-0.342,8.783-1.172,13.779c0.205,2.945-1.01,5.236-0.586,7.914  c6.338-0.057,12.807-0.416,19.494-0.146c-0.262-7.543-1.824-15.344-1.76-21.84c-0.422-0.459-0.281-1.479-0.586-2.051  c-0.053-6.593-1.465-14.173-1.611-20.234c2.438-1.996,7.783-0.928,11.285-1.465c-0.922-1.863-2.979-2.592-3.957-4.398  c-1.273-1.512-2.494-3.074-3.666-4.691c-3.115-2.551-4.512-6.822-8.5-8.5C49.027,14.477,48.881,14.624,48.799,14.834z   M55.834,33.598c-0.26,1.639,0.096,3.898,0.879,4.982c2.15-0.172,4.502-0.057,6.01-0.148c0.943-1.309,1.764-3.502,2.053-4.982  C61.762,32.918,58.447,34.124,55.834,33.598z M31.209,36.821c-0.982,1.262-1.195,3.301-1.611,5.129  c1.645,0.639,3.912-0.883,6.01-0.293c1.523-1.602,3.494-2.76,4.543-4.836C37.533,36.616,34.238,36.954,31.209,36.821z   M36.633,78.014c1.965-12.652,1.605-26.299,3.957-38.554c-0.008-0.09-0.021-0.174-0.146-0.146c-2.074,1.098-3.121,3.229-4.984,4.543  c-0.346,13.076-0.908,25.414-3.076,37.382C34.336,80.701,35.039,78.912,36.633,78.014z M37.514,79.48  c-1.807,1.467-3.445,3.102-5.572,4.25c5.77-0.941,12.072-1.662,17.885-0.441c2.328-0.219,4.176,0.066,6.596-0.146  c0.525-1.277,1.418-2.191,1.758-3.662C51.516,79.178,44.217,79.572,37.514,79.48z"></path><path fill-rule="evenodd" clip-rule="evenodd" d="M-23.106,12.507c0.673-0.223,0.397,0.502,0.448,0.896  C-23.053,13.349-23.169,13.017-23.106,12.507z"></path></svg>