<svg height='100px' width='100px'  fill="#9d5a15" xmlns="http://www.w3.org/2000/svg" xmlns:xlink="http://www.w3.org/1999/xlink" version="1.1" x="0px" y="0px" viewBox="-247 370.9 100 100" style="enable-background:new -247 370.9 100 100;" xml:space="preserve"><path d="M-174.1,426.1c-1.8,0-3.2,1.4-3.2,3.2c0,1.8,1.4,3.2,3.2,3.2c1.8,0,3.2-1.4,3.2-3.2C-170.9,427.5-172.3,426.1-174.1,426.1z   M-174.1,431.7c-1.3,0-2.4-1.1-2.4-2.4c0-1.3,1.1-2.4,2.4-2.4c1.3,0,2.4,1.1,2.4,2.4C-171.7,430.7-172.7,431.7-174.1,431.7z   M-223.3,426.1c-1.8,0-3.2,1.4-3.2,3.2c0,1.8,1.4,3.2,3.2,3.2s3.2-1.4,3.2-3.2C-220.1,427.5-221.5,426.1-223.3,426.1z M-223.3,431.7  c-1.3,0-2.4-1.1-2.4-2.4c0-1.3,1.1-2.4,2.4-2.4s2.4,1.1,2.4,2.4C-220.9,430.7-222,431.7-223.3,431.7z M-198.2,408.7h-7.6  c-0.5,0-0.9,0.1-1.2,0.3c-0.3,0.2-0.5,0.6-0.5,0.9c0,0.1,0,0.2,0,0.3c0.1,0.6,0.4,2.7,0.8,4c0.3,1.3,1.3,1.7,2.3,1.7  c0.1,0,0.2,0,0.3,0c0,0,6.3,0,7.3,0c0.5,0,0.8-0.1,1.1-0.3c0.3-0.2,0.4-0.6,0.4-0.9c0-0.2,0-0.4-0.1-0.6c-0.2-0.6-0.7-3.1-1-4.1  C-196.7,409-197.5,408.7-198.2,408.7z M-196.1,414.8c-0.1,0.3,0,0.3-0.7,0.4h-7.3c-1.2-0.1-1.5,0-1.8-1.1c-0.3-1.2-0.6-3.4-0.7-4  c0-0.1,0-0.1,0-0.1c0-0.2,0-0.4,0.9-0.4h7.6c0.7,0.1,0.7-0.1,1,0.8c0.3,1,0.8,3.4,1,4.1C-196.2,414.5-196.1,414.7-196.1,414.8z   M-197.8,417.4h2.8v-0.8h-2.9L-197.8,417.4L-197.8,417.4z M-158.7,418.4c-0.1-0.1-0.3-0.2-0.4-0.2h-31.6c-0.4-1.5-1.9-6.4-2.3-8.2  c-0.3-1-0.5-1.9-0.8-2.6c-0.3-0.6-0.9-1.2-1.7-1.2h-12c-1.1,0-1.8,0.3-2.2,0.7c-0.3,0.3-0.4,0.6-0.4,0.8l-3.9,7.7h-14.1  c-1.9,0-3,0.8-3.6,1.7c-0.3,0.5-0.5,1.1-0.5,1.5c-1,0.1-1.8,0.3-2.3,0.6c-0.7,0.3-1,1-1,1.6c0.1,0.8,0.6,1.5,1,2.3  c0.5,0.8,0.9,1.7,0.9,1.9v2.3h-0.8c-0.2,0-0.4,0.1-0.5,0.3c-0.4,0.5-0.5,1.1-0.5,1.6c0,1,0.3,1.7,0.4,1.8c0.1,0.2,0.3,0.4,0.6,0.4  h2.4c1,0,1.7-0.6,2-1.3s0.4-1.4,0.6-2.2c0.2-0.9,0.7-1.9,1.3-2.5c-0.9,1.1-1.4,2.4-1.4,3.9c0,3.4,2.8,6.2,6.2,6.2  c3.4,0,6.2-2.8,6.2-6.2c0-0.6-0.1-1.2-0.3-1.7c0.4,0.6,0.8,1.2,1.2,1.8c0.7,1.1,1.2,1.7,1.8,2.2c0.6,0.4,1.2,0.5,2,0.5h30.2  c0.9,0,1.3-0.8,1.5-1.4c0.1-0.3,0.2-0.7,0.4-1.1c0.1,3.3,2.8,6,6.2,6c3.4,0,6.2-2.8,6.2-6.2c0-0.4,0-0.7-0.1-1.1  c0.2,0.3,0.3,0.7,0.5,1c0.3,0.8,0.7,1.4,1.3,1.7c0.6,0.3,1.3,0.3,2.2,0.3v-0.6l0.1,0.6c0,0,1.9-0.2,3.1-0.5c1.1-0.3,1.7-1.1,1.6-1.9  c0-0.2,0-0.3-0.1-0.5c0-0.1-0.1-0.2-0.1-0.3h0.2c0.2,0,0.3-0.1,0.4-0.2c0.1-0.1,0.2-0.3,0.2-0.4v-8.6  C-158.5,418.7-158.5,418.5-158.7,418.4z M-209.3,408.6c0.3,0.4,0.6,1,0.7,2.1c0.3,2.4,0.4,3.2,0.5,3.8v0.1c0,0.2,0,0.2-0.1,0.2  c0,0-0.2,0.1-0.7,0.1c-0.2,0-0.4,0-0.6,0c-0.9-0.1-2.1-0.2-2.8-0.3L-209.3,408.6z M-223.3,434.3c-2.8,0-5-2.2-5-5  c0-2,1.2-3.7,2.9-4.5h4.3c1.7,0.8,2.9,2.5,2.9,4.5C-218.3,432.1-220.6,434.3-223.3,434.3z M-190.8,430.8h-2.5c0-0.3,0-2.6,0-5.1  v-6.4c0-1.9-2.3-11.1-2.3-11.1l-0.8,0.2c0,0,2.3,9.3,2.3,10.9v11.5h-18.2c-0.8,0-1.1-0.1-1.4-0.3c-0.3-0.2-0.8-0.8-1.5-1.9  c-1.5-2.1-3-5-5.6-5.1h-6.1c-2.3,0.1-3.3,2.5-3.7,4c-0.2,0.8-0.3,1.5-0.5,2c-0.2,0.4-0.3,0.5-0.9,0.6h-2l0,0  c-0.1-0.2-0.1-0.6-0.1-0.9c0-0.2,0-0.5,0.1-0.7h1c0.2,0,0.3-0.1,0.4-0.2l0,0h1.2v-0.8h-1.1V425c0-0.9-0.6-1.7-1-2.5  c-0.5-0.8-0.9-1.7-0.9-1.7c0-0.2,0-0.3,0.4-0.5c0.4-0.2,1.1-0.4,2.4-0.5c0.2,0,0.3-0.1,0.4-0.2c1.5-0.1,7.1-0.5,15.6-0.5h4.6v10.3  h0.8V419h9v-0.8h-14.3c-8.1,0-13.6,0.3-15.4,0.5c0-0.3,0.1-0.6,0.3-0.9c0.4-0.6,1-1.1,2.6-1.1c3.7,0,14.5,0,14.5,0  c0.2,0,0.4-0.1,0.5-0.3l0.4-0.9c0.7,0.1,2.1,0.3,3.1,0.3c0.2,0,0.4,0,0.6,0c0.5,0,0.8,0,1.1-0.3c0.3-0.2,0.4-0.6,0.4-0.9v-0.1  c0-0.7-0.2-1.5-0.5-3.9c-0.2-1.5-0.7-2.4-1.1-2.8c0.1-0.1,0.4-0.3,1.4-0.4h12c0.2,0,0.3,0.1,0.6,0.6c0.2,0.5,0.5,1.3,0.8,2.3  c0.5,2.1,2.5,8.6,2.5,8.6c0.1,0.2,0.2,0.3,0.3,0.4c0.5,1.4,0.6,1.5,0.6,5.5C-190.8,424.8-190.8,430.8-190.8,430.8z M-190.6,419.4  h7.7c-0.7,0.1-1.4,0.3-1.9,0.8c-0.8,0.7-1.2,1.8-1.2,3.5v5.4h-4c0-1.1,0-2.5,0-4.2C-190,421.2-190.2,420.6-190.6,419.4z   M-174.1,434.3c-2.8,0-5-2.2-5-5c0-1.3,0.5-2.4,1.3-3.3c0.1,0,0.3,0,0.4,0h5.8c0.3,0,0.5,0,0.8,0.1c0.1,0,0.2,0.1,0.3,0.1  c0.1,0,0.2,0.1,0.3,0.1c0.7,0.9,1.1,1.9,1.1,3.1C-169.1,432.1-171.3,434.3-174.1,434.3z M-161.1,429.5c-0.9,0.3-2.6,0.4-2.9,0.5  c-0.9,0-1.4,0-1.7-0.2c-0.2-0.1-0.4-0.3-0.8-1.1c-0.5-1.2-1.4-2.8-3.2-3.6l0,0l0,0c-0.3-0.1-0.6-0.2-0.9-0.3  c-0.3-0.1-0.7-0.1-1.1-0.1h-5.8l0,0c-0.2,0-0.3,0-0.4,0c-1.4,0.2-2.6,1.3-3.2,3c-0.3,0.9-0.5,1.8-0.7,2.4c-0.1,0.3-0.2,0.5-0.3,0.6  c-0.1,0.1-0.1,0.1-0.1,0.1h-7.8c0-0.2,0-0.6,0-1h7V429h-2.2v-5.4c0.1-3.1,1.4-3.4,3.2-3.5h11.6c2.9,0,4.8,0,6.1,0.2  c1.3,0.2,1.7,0.5,1.9,0.9c0.4,1,1.5,4.7,1.8,5.9c-0.1,0.1-0.1,0.2-0.1,0.3c0,0,0,0.6,0.3,1.2v0.1  C-160.3,429-160.4,429.3-161.1,429.5z M-159.7,426.9c-0.4-1.3-1.4-4.8-1.9-5.9c-0.4-0.9-1.2-1.2-2.6-1.4c-0.5-0.1-1-0.1-1.7-0.1h6.2  V426.9L-159.7,426.9z"></path></svg>