<svg height='100px' width='100px'  fill="#864f3e" xmlns="http://www.w3.org/2000/svg" xmlns:xlink="http://www.w3.org/1999/xlink" version="1.1" x="0px" y="0px" viewBox="0 0 100 100" enable-background="new 0 0 100 100" xml:space="preserve"><path fill-rule="evenodd" clip-rule="evenodd" d="M67.409,12.096c0.4,0,0.801,0,1.201,0c4.037,2.203,5.879,6.6,9.119,9.6  c3.289,2.951,6.777,5.702,9.6,9.12c-2.697,2.022-4.609,4.831-6.959,7.2c-1.648,0.353-3.861,0.14-5.281,0.72  c-0.105,4.898-0.219,8.574-0.479,14.399c-1.045,5.277-2.936,9.707-4.801,14.16c-2.434,3.568-5.816,6.184-7.92,10.08  c-6.291,5.668-14.615,11.734-26.4,10.32c-3.441-1.039-5.881-3.078-8.639-4.799c-11.143-9.701-6.359-31.664-5.521-49.441  c2.049-2.351,4.16-4.639,6.24-6.959c4.295,0.276,9.893,0.223,13.201,2.159c-1.451,11.052-2.332,23.758-0.48,35.04  c1.031,1.85,1.027,4.732,3.359,5.281c4.287-1.553,5.4-6.281,7.201-10.32c0.793-3.767,1.297-7.822,2.158-11.521  c-0.312-3.352,0.701-5.379,0.48-8.639c-1.787-0.432-4.969,0.508-6.719-0.48c0.809-2.949,3.18-4.34,4.559-6.721  c6.457-4.902,10.068-12.65,15.361-18.72C66.866,12.352,67.126,12.212,67.409,12.096z M68.61,13.055c-0.16,0-0.32,0-0.48,0  c-0.346,0.135-0.586,0.375-0.721,0.721c-4.162,5.916-8.26,11.9-12.719,17.52c2.23,1.391,5.895-0.432,8.16,0.24  c1.691,3.195-0.074,8.134-0.48,11.52c-0.408,4.073-1.035,7.926-2.16,11.281c-2.293,6.746-4.826,13.254-10.801,16.32  c-2,0.76-4.912,0.504-6.719-0.24c-7.58-8.768-4.744-27.791-3.361-40.561c-2.482-1.607-7.248-2.178-11.039-1.68  c-3.074,19.689-8.691,51.527,15.359,52.32c1.828,0.068,3.236-0.285,4.801-0.48c13.461-4.377,23.057-12.623,24.24-29.28  c-0.018-6.669,0.506-13.034,0.238-18.239c3.582-0.9,7.758-1.203,11.521-1.921C79.513,24.393,72.331,20.453,68.61,13.055z   M48.69,82.176c-12.502,0.98-18.967-4.074-22.801-11.76c-3.754-12.004-1.301-28.626,0.721-40.561  c-0.014-0.146-0.037-0.284-0.24-0.24c-1.439,1.201-2.908,2.372-3.84,4.08c-1.543,10.891-1.664,22.611-1.441,35.041  c0.539,6.021,3.475,9.645,6.48,13.199c3.311,1.889,5.877,4.523,11.041,4.561c6.881-1.359,13.834-2.645,17.52-7.201  C53.444,80.051,51.257,81.305,48.69,82.176z M74.851,33.455c-0.166,0.879-0.098,2.972,0.238,4.08  c4.229-0.013,6.588-1.893,7.682-5.039C79.851,32.535,77.386,33.032,74.851,33.455z M52.53,32.735  c-0.916,1.485-2.318,2.481-3.121,4.08c4.014,0.958,7.338-0.812,9.121-2.88C56.444,33.62,54.851,32.814,52.53,32.735z M60.929,33.455  c-1.75,2.17-4.963,2.877-6.479,5.28c0.494,2.592-0.773,5.376,0,8.16c-0.666,4.694-1.549,9.171-2.4,13.681  c-1.242,3.324-3.809,6.58-5.279,8.879c8.002-2.156,9.605-10.713,12.479-18c0.621-6.099,1.842-11.599,2.4-17.76  C61.343,33.682,61.317,33.388,60.929,33.455z"></path></svg>